<svg xmlns="http://www.w3.org/2000/svg" xmlns:xlink="http://www.w3.org/1999/xlink"><symbol viewBox="0 0 40 40" id="ys-icon-set-add-to-playlist" xmlns="http://www.w3.org/2000/svg"><path d="M7 27.58h11.7M7 18.73h27M7 9.88h27m-9 17.7h9m-4.5-4.43V32" fill="none" fill-rule="evenodd" stroke="currentColor" stroke-linecap="round" stroke-width="2"/></symbol><symbol viewBox="0 0 40 40" id="ys-icon-set-additional-packages" xmlns="http://www.w3.org/2000/svg"><g fill="none" fill-rule="evenodd" stroke="currentColor" stroke-width="2"><path stroke-linecap="round" d="M17.5 17v11m5.5-6H12"/><path d="M5 8h25a2 2 0 0 1 2 2v25a2 2 0 0 1-2 2H5a2 2 0 0 1-2-2V10c0-1.1.9-2 2-2z"/><path d="M8 8.2V5c0-1.1 1-2 2-2h25c1 0 2 1 2 2v25c0 1-1 2-2 2h-3.2"/></g></symbol><symbol viewBox="0 0 40 40" id="ys-icon-set-airplay" xmlns="http://www.w3.org/2000/svg"><g fill="currentColor" fill-rule="evenodd"><path fill-rule="nonzero" d="M14.46 25.46L13 27H8.8A2.81 2.81 0 0 1 6 24.18V10.82A2.81 2.81 0 0 1 8.8 8h22.4c1.55 0 2.8 1.26 2.8 2.82v13.36A2.81 2.81 0 0 1 31.2 27h-4.18l-1.65-1.54h5.83c.7 0 1.27-.58 1.27-1.28V10.82c0-.7-.57-1.28-1.27-1.28H8.8c-.7 0-1.27.58-1.27 1.28v13.36c0 .7.57 1.28 1.27 1.28h5.66z"/><path d="M20.6 22.65l8.18 9.01A.8.8 0 0 1 28.2 33H11.81a.8.8 0 0 1-.6-1.34l8.2-9a.8.8 0 0 1 1.18 0z"/></g></symbol><symbol viewBox="0 0 40 40" id="ys-icon-set-album" xmlns="http://www.w3.org/2000/svg"><g fill="none" fill-rule="evenodd" stroke="currentColor" stroke-linecap="square" stroke-width="2"><circle cx="20.048" cy="20.048" r="3.336"/><circle cx="20" cy="20" r="12.787"/></g></symbol><symbol viewBox="0 0 40 40" id="ys-icon-set-archive" xmlns="http://www.w3.org/2000/svg"><g fill="none" fill-rule="evenodd" stroke="currentColor" stroke-width="2"><path d="M33.83 32.47H6.76c-.94 0-1.72-.7-1.81-1.63L3.48 16.08a1.82 1.82 0 0 1 1.8-2H35.3a1.82 1.82 0 0 1 1.8 2l-1.46 14.76c-.1.93-.88 1.63-1.81 1.63z"/><path d="M34.82 14.08v-2.34c0-1-.82-1.82-1.82-1.82H21.04c-.75 0-1.35-.6-1.35-1.35 0-.75-.6-1.36-1.36-1.36H7.6c-1 0-1.82.82-1.82 1.82v5.05"/></g></symbol><symbol viewBox="0 0 40 40" id="ys-icon-set-arrow-left" xmlns="http://www.w3.org/2000/svg"><path d="M21 10L11 20l10 10m9-10H12" fill="none" fill-rule="evenodd" stroke="currentColor" stroke-linecap="round" stroke-linejoin="round" stroke-width="2"/></symbol><symbol viewBox="0 0 40 40" id="ys-icon-set-arrow-right" xmlns="http://www.w3.org/2000/svg"><path d="M20 10l10 10-10 10m-9-10h18" fill="none" fill-rule="evenodd" stroke="currentColor" stroke-linecap="round" stroke-linejoin="round" stroke-width="2"/></symbol><symbol viewBox="0 0 40 40" id="ys-icon-set-artist" xmlns="http://www.w3.org/2000/svg"><g fill="none" fill-rule="evenodd" stroke="currentColor" stroke-width="2" transform="translate(5.9 5.25)"><path stroke-linecap="round" d="M0 28.4C.17 22.8 2.6 20 7.3 20h10.54c.97 0 1.83.14 2.6.41"/><ellipse cx="12.02" cy="7.93" rx="8.17" ry="7.93"/><g transform="translate(19 12)"><path stroke-linecap="round" d="M5.47 14.62V1.1c0-.37.26-.7.63-.77l3.4 1.92"/><ellipse cx="2.73" cy="15.02" rx="2.73" ry="1.97"/></g></g></symbol><symbol viewBox="0 0 40 40" id="ys-icon-set-artist-radio" xmlns="http://www.w3.org/2000/svg"><g fill="none" fill-rule="evenodd"><path stroke="currentColor" stroke-linecap="round" stroke-width="2.017" d="M24.223 33H7.068a2.009 2.009 0 0 1-2.017-2V18c0-1.105.903-2 2.017-2h21.178c1.113 0 2.017.895 2.017 2v2.963"/><path fill="currentColor" d="M25.725 22c.834 0 1.512-.672 1.512-1.5S26.56 19 25.725 19c-.836 0-1.513.672-1.513 1.5s.677 1.5 1.513 1.5"/><path stroke="currentColor" stroke-linecap="round" stroke-width="1.008" d="M8.58 20.5h12.102"/><path stroke="currentColor" stroke-linecap="round" stroke-width="2.017" d="M11.102 8l16.135 8"/><path stroke="currentColor" stroke-linecap="round" stroke-width="1.008" d="M27.237 35.752c.072-2.318 1.088-3.476 3.049-3.476h4.396c.403 0 .765.056 1.087.17"/><ellipse cx="32.253" cy="27.283" stroke="currentColor" stroke-width="1.008" rx="3.411" ry="3.283"/><path stroke="currentColor" stroke-linecap="round" stroke-width=".807" d="M37.448 35.017v-5.595c0-.156.11-.29.262-.32l1.42.793"/><ellipse cx="36.307" cy="35.179" stroke="currentColor" stroke-width=".807" rx="1.141" ry="1"/></g></symbol><symbol viewBox="0 0 40 40" id="ys-icon-set-back-10seconds" xmlns="http://www.w3.org/2000/svg"><g fill="none" fill-rule="evenodd"><path fill="currentColor" d="M18.089 24.076v-4.258c-.491.234-1.026.368-1.661.412l-.235-1.237c.814-.212 1.728-.758 2.286-1.416h1.449v6.5h1.393v1.415h-4.804v-1.416h1.572zm5.884-2.497c0 1.616.323 2.475 1.137 2.475.792 0 1.148-.859 1.148-2.508 0-1.583-.312-2.497-1.137-2.497s-1.148.914-1.148 2.53zm-1.85 0c0-2.709 1.092-4.113 3.032-4.113 1.917 0 2.954 1.404 2.954 4.013 0 2.809-1.082 4.158-3.032 4.158-1.94 0-2.954-1.35-2.954-4.058z"/><path stroke="currentColor" stroke-linecap="round" d="M10.557 22.344h3.28"/><path fill="currentColor" d="M19.503 5.677l5.034-2.918a.734.734 0 0 1 1.102.636v6.39a.734.734 0 0 1-1.102.636l-5.034-2.918v2.283a.734.734 0 0 1-1.102.635l-5.513-3.195a.734.734 0 0 1 0-1.271l5.513-3.196a.734.734 0 0 1 1.102.636v2.282z"/><path stroke="currentColor" stroke-linecap="round" stroke-width="2" d="M6.128 14.187a15.928 15.928 0 0 0-1.997 7.747c0 8.837 7.164 16 16 16 7.8 0 14.296-5.58 15.713-12.968.189-.981.287-1.995.287-3.032 0-8.278-6.287-15.088-14.347-15.915"/></g></symbol><symbol viewBox="0 0 40 40" id="ys-icon-set-back-left" xmlns="http://www.w3.org/2000/svg"><path fill="none" stroke="currentColor" stroke-linecap="round" stroke-linejoin="round" stroke-width="2" d="M25 10L15 20l10 10"/></symbol><symbol viewBox="0 0 40 40" id="ys-icon-set-back-to-live" xmlns="http://www.w3.org/2000/svg"><g fill="none" fill-rule="evenodd"><path fill="currentColor" d="M24.167 21.005l-8.952 5.011a1.152 1.152 0 0 1-1.715-1.005V14.989a1.152 1.152 0 0 1 1.715-1.005l8.952 5.01a1.152 1.152 0 0 1 0 2.011zm8.999.866l-3.619-6.029a.502.502 0 0 1 .43-.76h7.237a.502.502 0 0 1 .43.76l-3.618 6.03a.502.502 0 0 1-.86 0z"/><path stroke="currentColor" stroke-linecap="round" stroke-width="2" d="M31.647 28.493C28.817 33.003 23.8 36 18.084 36c-8.836 0-16-7.163-16-16 0-7.8 5.582-14.296 12.968-15.713A16.084 16.084 0 0 1 18.084 4C26.363 4 33.173 10.287 34 18.347"/></g></symbol><symbol viewBox="0 0 40 40" id="ys-icon-set-bill" xmlns="http://www.w3.org/2000/svg"><g fill="none" fill-rule="evenodd" stroke="currentColor" stroke-width="2"><path d="M11.18 4h10c.59 0 1.14.21 1.55.59l9.63 8.82c.41.38.64.89.64 1.42V34c0 1.1-.98 2-2.18 2H11.18C9.98 36 9 35.1 9 34V6c0-1.1.98-2 2.18-2z"/><path stroke-linecap="round" stroke-linejoin="round" d="M22 5v9a1 1 0 0 0 1 1h10m-19 9h14m-14 5h14"/></g></symbol><symbol viewBox="0 0 40 40" id="ys-icon-set-bluetooth" xmlns="http://www.w3.org/2000/svg"><g fill="none" fill-rule="evenodd" stroke="currentColor" stroke-linecap="round" stroke-width="2"><path d="M19.72 20.38V7.9a1 1 0 0 1 1.57-.83l7.25 5.01a1 1 0 0 1 0 1.64L10 26.73"/><path d="M19.72 20.25v12.47a1 1 0 0 0 1.57.82l7.25-5a1 1 0 0 0 0-1.65L10 13.9"/></g></symbol><symbol viewBox="0 0 40 40" id="ys-icon-set-broadband" xmlns="http://www.w3.org/2000/svg"><g fill="none" fill-rule="evenodd"><path fill="currentColor" fill-rule="nonzero" d="M20 33a3 3 0 1 1 0-6 3 3 0 0 1 0 6"/><path stroke="currentColor" stroke-linecap="round" stroke-linejoin="round" stroke-width="2" d="M9 21a15 15 0 0 1 22 0M5 16c4-4 9-6 15-6s11 2 15 6m-9 9c-1-2-4-3-6-3s-5 1-6 3"/></g></symbol><symbol viewBox="0 0 40 40" id="ys-icon-set-browse" xmlns="http://www.w3.org/2000/svg"><g fill="none" fill-rule="evenodd" stroke="currentColor" stroke-width="2"><rect width="33" height="22.55" x="4" y="13.45" stroke-linecap="square" rx="2.18"/><path stroke-linecap="round" d="M7.59 9.1H33.4M10.46 4.73h20.08"/></g></symbol><symbol viewBox="0 0 40 40" id="ys-icon-set-calendar" xmlns="http://www.w3.org/2000/svg"><g fill="none" fill-rule="evenodd" stroke="currentColor" stroke-width="2"><rect width="28.67" height="25.59" x="5.67" y="8.33" rx="4"/><path stroke-linecap="square" d="M5.67 16.14h28.66"/><path stroke-linecap="round" stroke-linejoin="round" d="M12.8 5.46v5.74m14.13-5.74v5.94"/></g></symbol><symbol viewBox="0 0 40 40" id="ys-icon-set-camera" xmlns="http://www.w3.org/2000/svg"><g fill="none" fill-rule="evenodd" stroke="currentColor" stroke-width="2"><path d="M33.13 10.38h-4.7l-.93-1.65c-.5-1-1.08-1.3-1.88-1.3H14.38c-.79 0-1.37.3-1.87 1.3l-.93 1.64h-4.7C5.84 10.38 5 11.55 5 12.48v16.84c0 .92.84 1.68 1.88 1.68h26.25c1.03 0 1.87-.76 1.87-1.68V12.48c0-.93-.84-2.1-1.88-2.1z"/><path d="M20 15.43a5 5 0 1 0 0 10 5 5 0 0 0 0-10z"/></g></symbol><symbol viewBox="0 0 40 40" id="ys-icon-set-campaigns" xmlns="http://www.w3.org/2000/svg"><g fill="none" fill-rule="evenodd" stroke="currentColor" stroke-width="2"><path stroke-linecap="round" stroke-linejoin="round" d="M4.7 14.2L37 8.8v21.9L4.7 25A2 2 0 0 1 3 23v-6.8a2 2 0 0 1 1.7-2z"/><path d="M27 29v2a2 2 0 0 1-2 2H15a2 2 0 0 1-2-2v-4"/><path stroke-linejoin="round" d="M8.5 14v11"/><path stroke-linecap="round" stroke-linejoin="round" d="M37 7v26"/></g></symbol><symbol viewBox="0 0 40 40" id="ys-icon-set-channels" xmlns="http://www.w3.org/2000/svg"><path fill="none" stroke="currentColor" stroke-width="2" d="M8.08 6.1h7.7c1.1 0 1.99.89 1.99 1.98v7.7c0 1.1-.9 1.99-1.99 1.99h-7.7c-1.1 0-1.98-.9-1.98-1.99v-7.7c0-1.1.89-1.98 1.98-1.98zm16.34 0h7.7c1.09 0 1.98.89 1.98 1.98v7.7c0 1.1-.89 1.99-1.99 1.99h-7.7c-1.09 0-1.98-.9-1.98-1.99v-7.7c0-1.1.89-1.98 1.99-1.98zM8.08 22.43h7.7c1.1 0 1.99.89 1.99 1.99v7.7c0 1.09-.9 1.98-1.99 1.98h-7.7c-1.1 0-1.98-.89-1.98-1.99v-7.7c0-1.09.89-1.98 1.98-1.98zm16.34 0h7.7c1.09 0 1.98.89 1.98 1.99v7.7c0 1.09-.89 1.98-1.99 1.98h-7.7c-1.09 0-1.98-.89-1.98-1.99v-7.7c0-1.09.89-1.98 1.99-1.98z"/></symbol><symbol viewBox="0 0 40 40" id="ys-icon-set-checkmark" xmlns="http://www.w3.org/2000/svg"><path fill="none" stroke="currentColor" stroke-linecap="round" stroke-linejoin="round" stroke-width="2" d="M7 19.8L17.1 30 33 9"/></symbol><symbol viewBox="0 0 40 40" id="ys-icon-set-children" xmlns="http://www.w3.org/2000/svg"><g fill="none" fill-rule="evenodd"><path fill="currentColor" fill-rule="nonzero" d="M13.538 19.263c0-.715.567-1.26 1.268-1.26.7 0 1.267.58 1.267 1.26 0 .715-.567 1.26-1.267 1.26s-1.268-.58-1.268-1.26zm11.673 0c0-.715.567-1.26 1.267-1.26s1.268.58 1.268 1.26c0 .715-.567 1.26-1.268 1.26-.7 0-1.267-.58-1.267-1.26z"/><path fill="currentColor" d="M17.24 23.008c0 1.361 1.434 3.233 3.202 3.233s3.202-1.872 3.202-3.233c0-1.362-1.434-1.77-3.202-1.77s-3.202.408-3.202 1.77z"/><path stroke="currentColor" stroke-width="2" d="M20.442 34.207c-8.104 0-14.741-6.57-14.741-14.603 0-1.26.167-2.52.5-3.745A6.053 6.053 0 0 1 4 11.161C4 7.757 6.768 5 10.17 5c1.434 0 2.835.51 3.935 1.396 3.936-1.839 8.705-1.839 12.64 0A6.323 6.323 0 0 1 30.681 5c3.401 0 6.17 2.757 6.17 6.161 0 1.839-.8 3.54-2.202 4.698.334 1.225.5 2.485.5 3.745 0 8.067-6.603 14.603-14.707 14.603"/></g></symbol><symbol viewBox="0 0 40 40" id="ys-icon-set-chromecast" xmlns="http://www.w3.org/2000/svg"><g fill="none" fill-rule="evenodd"><path d="M0 0h40v40H0z"/><path fill="currentColor" fill-rule="nonzero" d="M5 28.31v4.26h4.3A4.27 4.27 0 0 0 5 28.31zm0-5.68v2.84a7.13 7.13 0 0 1 7.15 7.1h2.86c0-5.5-4.47-9.94-10.01-9.94zm0-5.68v2.84c7.11 0 12.88 5.72 12.88 12.78h2.86c0-8.63-7.06-15.62-15.74-15.62zM33.61 7H7.86A2.86 2.86 0 0 0 5 9.84v4.26h2.86V9.84h25.75v19.9H23.6v2.83h10a2.86 2.86 0 0 0 2.87-2.84V9.84A2.86 2.86 0 0 0 33.6 7z"/></g></symbol><symbol viewBox="0 0 40 40" id="ys-icon-set-close" xmlns="http://www.w3.org/2000/svg"><path d="M12 12l8 8 8 8m0-16l-8 8-8 8" fill="none" fill-rule="evenodd" stroke="currentColor" stroke-linecap="round" stroke-linejoin="round" stroke-width="2"/></symbol><symbol viewBox="0 0 40 40" id="ys-icon-set-connection-fail" xmlns="http://www.w3.org/2000/svg"><g fill="none" fill-rule="evenodd" stroke="currentColor" stroke-linecap="round" stroke-width="2"><path stroke-linejoin="round" d="M24.95 31.4H9.85C5.6 31.5 2 28.09 2 24.09c0-6 4.45-7.43 6-8 .2-1.18.56-2.2 1.03-3.1M15 8.3A8.68 8.68 0 0 1 26 16c13.69-.85 13.48 11.44 6.99 14.66"/><path d="M9 6l23 29"/></g></symbol><symbol viewBox="0 0 40 40" id="ys-icon-set-consumption" xmlns="http://www.w3.org/2000/svg"><g fill="none" fill-rule="evenodd"><circle cx="20" cy="20" r="16" stroke="currentColor" stroke-width="2"/><path fill="currentColor" fill-rule="nonzero" d="M27 6l-6.612 13.224a1 1 0 0 0 .325 1.27L33 29c2.636-6.932 3.302-11.932 2-15-1.302-3.068-3.97-5.735-8-8z"/></g></symbol><symbol viewBox="0 0 40 40" id="ys-icon-set-contact" xmlns="http://www.w3.org/2000/svg"><path fill="none" stroke="currentColor" stroke-width="2" d="M33.3 26.36l-3.35-3.34a2.35 2.35 0 0 0-3.35 0l-2.68 2.67c-3.88-1.87-7.76-5.75-9.5-9.63l2.54-2.67c.94-.94.94-2.4 0-3.21L13.62 6.7a2.35 2.35 0 0 0-3.35 0l-3.35 3.48c-5.76 5.75 17.14 28.75 23.03 22.87l3.35-3.35c.93-.93.93-2.4 0-3.34z"/></symbol><symbol viewBox="0 0 40 40" id="ys-icon-set-couple" xmlns="http://www.w3.org/2000/svg"><g fill="none" fill-rule="evenodd" stroke="currentColor" stroke-width="2"><circle cx="28" cy="7" r="3"/><circle cx="12" cy="7" r="3"/><path stroke-linecap="round" stroke-linejoin="round" d="M26 13h4a4 4 0 0 1 4 4v8.636a2 2 0 0 1-2 2h-1L31.007 36H25v-8.364h-1a2 2 0 0 1-2-2V17a4 4 0 0 1 4-4zm-16 0h4a4 4 0 0 1 4 4v8.636a2 2 0 0 1-2 2h-1L15.007 36H9v-8.364H8a2 2 0 0 1-2-2V17a4 4 0 0 1 4-4z"/></g></symbol><symbol viewBox="0 0 40 40" id="ys-icon-set-data" xmlns="http://www.w3.org/2000/svg"><g fill="none" fill-rule="evenodd" stroke="currentColor" stroke-linecap="round" stroke-linejoin="round" stroke-width="2"><path d="M5 20l15 7 16-7"/><path d="M5 26l15 7 16-7M20 8L5 14.5 20 21l16-6.5z"/></g></symbol><symbol viewBox="0 0 40 40" id="ys-icon-set-delete" xmlns="http://www.w3.org/2000/svg"><g fill="none" fill-rule="evenodd" stroke="currentColor" stroke-width="2"><path stroke-linecap="square" d="M11.93 35h15.5a2 2 0 0 0 2-1.9L30.57 11H9l.94 22.08a2 2 0 0 0 2 1.92z"/><path stroke-linecap="round" d="M14 16l1 14m5-14v14m6-14l-1 14"/><path stroke-linecap="square" d="M17 6h6a2 2 0 0 1 2 2v3H15V8c0-1.1.9-2 2-2z"/><path stroke-linecap="round" d="M34 11H6"/></g></symbol><symbol viewBox="0 0 40 40" id="ys-icon-set-delete-locked" xmlns="http://www.w3.org/2000/svg"><g fill="none" fill-rule="evenodd"><path stroke="currentColor" stroke-linecap="round" stroke-width="2" d="M30.02 19.86l.55-9.86H9l.94 22.08a2 2 0 0 0 2 1.92h7.13M14 15l1 14m5-14v14m6-14l-.4 5.47"/><path stroke="currentColor" stroke-linecap="square" stroke-width="2" d="M17 5h6a2 2 0 0 1 2 2v3H15V7c0-1.1.9-2 2-2z"/><path stroke="currentColor" stroke-linecap="round" stroke-width="2" d="M34 10H6"/><g transform="translate(23 23)"><rect width="12" height="9.57" y="5.43" fill="currentColor" rx="1.14"/><path stroke="currentColor" stroke-linecap="square" stroke-width="2" d="M9.14 3.58A3.1 3.1 0 0 0 6 .54a3.1 3.1 0 0 0-3.14 3.04v3.07h6.28V3.58z"/></g></g></symbol><symbol viewBox="0 0 40 40" id="ys-icon-set-download" xmlns="http://www.w3.org/2000/svg"><g fill="none" fill-rule="evenodd" stroke="currentColor" stroke-linecap="round" stroke-width="2"><path d="M25.2 13h4.3c2 0 3.5 1.5 3.5 3.3v16.4c0 1.8-1.6 3.3-3.5 3.3h-19c-2 0-3.5-1.5-3.5-3.3V16.3c0-1.8 1.6-3.3 3.5-3.3h4.3"/><path stroke-linejoin="round" d="M20 22l5-4m-10 0l5 4"/><path d="M20 4v18"/></g></symbol><symbol viewBox="0 0 40 40" id="ys-icon-set-drag" xmlns="http://www.w3.org/2000/svg"><g fill="none" fill-rule="evenodd" stroke="currentColor" stroke-linecap="round" stroke-width="2"><path d="M6 24h28M6 17h28"/><path stroke-linejoin="round" d="M26 11l-6-6-6 6m0 19l6 6 6-6"/></g></symbol><symbol viewBox="0 0 40 40" id="ys-icon-set-edit" xmlns="http://www.w3.org/2000/svg"><path d="M24.338 9.881L10.627 22.76a3.355 3.355 0 0 0-.971 1.686l-1.207 5.192a1.678 1.678 0 0 0 1.938 2.03l5.505-1.016a3.355 3.355 0 0 0 1.682-.848l13.631-12.735a3.355 3.355 0 0 0 .162-4.742 3.355 3.355 0 0 0-.074-.077l-2.28-2.29a3.355 3.355 0 0 0-4.674-.078zm-7.682 18.463l-5-5" fill="none" fill-rule="evenodd" stroke="currentColor" stroke-linecap="square" stroke-width="2"/></symbol><symbol viewBox="0 0 40 40" id="ys-icon-set-family" xmlns="http://www.w3.org/2000/svg"><g fill="none" fill-rule="evenodd" stroke="currentColor" stroke-width="2"><circle cx="26" cy="7" r="3"/><circle cx="14" cy="7" r="3"/><circle cx="20" cy="18" r="3"/><path stroke-linecap="round" stroke-linejoin="round" d="M24 13h4a4 4 0 0 1 4 4v8.6a2 2 0 0 1-2 2h-1V36h-3m-12 0h-3v-8.4h-1a2 2 0 0 1-2-2V17a4 4 0 0 1 4-4h4m1 10h6c.6 0 1 .4 1 1v4.4c0 .4-.2.7-.6.9l-.8.4a1 1 0 0 0-.6 1V36h-4v-5.4a1 1 0 0 0-.6-.9l-.8-.4a1 1 0 0 1-.6-1V24c0-.6.4-1 1-1z"/></g></symbol><symbol viewBox="0 0 40 40" id="ys-icon-set-fast-forward" xmlns="http://www.w3.org/2000/svg"><g fill="none" fill-rule="evenodd"><circle cx="20" cy="20" r="16" stroke="currentColor" stroke-linecap="square" stroke-width="2"/><path fill="currentColor" d="M20.4 19l-6.47-3.73a.94.94 0 0 0-1.4.81v8.15a.94.94 0 0 0 1.4.81l6.46-3.72v2.91a.94.94 0 0 0 1.4.81l7.08-4.07a.94.94 0 0 0 0-1.62l-7.07-4.08a.94.94 0 0 0-1.4.81V19z"/></g></symbol><symbol viewBox="0 0 40 40" id="ys-icon-set-fast-forward2" xmlns="http://www.w3.org/2000/svg"><path fill="none" stroke="currentColor" stroke-width="2" d="M38 18.3l-14.7-8.1a2 2 0 0 0-3 1.7v16.2a2 2 0 0 0 3 1.7l14.7-8a2 2 0 0 0 0-3.5zm-19 .1L4 10.2a2 2 0 0 0-3 1.7v16.2a2 2 0 0 0 3 1.7l14.8-8.1c.6-.4 1-1 1-1.7.1-.6-.3-1.3-.8-1.6z"/></symbol><symbol viewBox="0 0 40 40" id="ys-icon-set-favorite-channels" xmlns="http://www.w3.org/2000/svg"><g fill="none" fill-rule="evenodd"><path stroke="currentColor" stroke-linecap="round" stroke-width="2" d="M5.9 26.45h11.7M5.9 17.6h27m-27-8.85h27"/><path fill="currentColor" d="M28.9 32.5l-4.34-5.08a3.1 3.1 0 0 1-.66-1.9c0-1.67 1.02-3.02 2.64-3.02 1.2 0 1.85 1.02 2.32 1.64.5-.6 1.24-1.64 2.43-1.64 1.62 0 2.61 1.35 2.61 3.01 0 .7-.22 1.35-.64 1.89l-4.35 5.1z"/></g></symbol><symbol viewBox="0 0 40 40" id="ys-icon-set-favorites" xmlns="http://www.w3.org/2000/svg"><path fill="none" stroke="currentColor" stroke-linecap="round" stroke-linejoin="round" stroke-width="2" d="M19.925 31.667S9.555 20.023 9.459 19.907a6.975 6.975 0 0 1-1.59-4.404c0-3.848 2.448-6.978 6.348-6.978 2.89 0 4.462 2.372 5.606 3.79 1.192-1.359 2.986-3.79 5.854-3.79 3.9 0 6.285 3.13 6.285 6.978a6.848 6.848 0 0 1-1.555 4.365l-10.482 11.8z"/></symbol><symbol viewBox="0 0 40 40" id="ys-icon-set-filters" xmlns="http://www.w3.org/2000/svg"><g fill="none" fill-rule="evenodd" stroke="currentColor" stroke-width="2"><circle cx="26" cy="29" r="3"/><circle cx="14" cy="20" r="3"/><path stroke-linecap="round" d="M6 29h17M6 29h17m6 0h5"/><circle cx="26" cy="11" r="3"/><path stroke-linecap="round" d="M6 11h17m6 0h5m-16 9h15M6 20h5"/></g></symbol><symbol viewBox="0 0 40 40" id="ys-icon-set-forum" xmlns="http://www.w3.org/2000/svg"><g fill="none" fill-rule="evenodd"><path stroke="currentColor" stroke-linecap="round" stroke-linejoin="round" stroke-width="2" d="M35.7 12.8c0 4.1-4.4 6-9.5 6L21 21v-4c-1-1-2.7-2-2.7-4.2 0-3.4 3.9-6.2 8.7-6.2 4.8 0 8.7 2.8 8.7 6.2z"/><path fill="currentColor" d="M32 13a1 1 0 1 1-2 0 1 1 0 0 1 2 0m-4 0a1 1 0 1 1-2 0 1 1 0 0 1 2 0m-4 0a1 1 0 1 1-2 0 1 1 0 0 1 2 0"/><path stroke="currentColor" stroke-linecap="round" stroke-width="2" d="M4 36c.1-3.3 1.6-5 4.6-5h6.9c2.7 0 4.2 1.7 4.4 5"/><circle cx="12.2" cy="23.2" r="4.2" stroke="currentColor" stroke-width="2"/></g></symbol><symbol viewBox="0 0 40 40" id="ys-icon-set-forward-30seconds" xmlns="http://www.w3.org/2000/svg"><g fill="none" fill-rule="evenodd"><path fill="currentColor" d="M21.298 5.347L16.264 2.43a.734.734 0 0 0-1.102.636v6.39a.734.734 0 0 0 1.102.636l5.034-2.918v2.283a.734.734 0 0 0 1.102.635l5.513-3.196a.734.734 0 0 0 0-1.27L22.4 2.429a.734.734 0 0 0-1.102.636v2.282z"/><path stroke="currentColor" stroke-linecap="round" stroke-width="2" d="M34.632 13.785a15.927 15.927 0 0 1 2.038 7.82c0 8.836-7.164 16-16 16-7.8 0-14.296-5.582-15.713-12.969a16.084 16.084 0 0 1-.287-3.032c0-8.278 6.287-15.088 14.347-15.915"/><path d="M13.082 20.377v3.279m1.639-1.64h-3.278" stroke="currentColor" stroke-linecap="round"/><path fill="currentColor" d="M17.228 25.228l.725-1.16c.568.424 1.17.691 1.862.691.668 0 1.203-.267 1.203-.925 0-.613-.39-.959-1.26-.97a5.02 5.02 0 0 0-.757.056l-.034-1.45c.914-.021 1.717-.423 1.717-1.103 0-.524-.368-.713-.892-.713-.58 0-1.115.212-1.572.468l-.68-1.137c.77-.535 1.539-.847 2.598-.847 1.36 0 2.307.713 2.307 1.94 0 .835-.557 1.571-1.471 1.894v.034c1.148.111 1.783.791 1.783 1.906 0 1.617-1.248 2.397-2.798 2.397-.97 0-1.995-.335-2.73-1.081zm8.148-2.977c0 1.617.323 2.475 1.137 2.475.791 0 1.148-.858 1.148-2.508 0-1.583-.312-2.497-1.137-2.497s-1.148.914-1.148 2.53zm-1.85 0c0-2.709 1.092-4.113 3.031-4.113 1.918 0 2.954 1.404 2.954 4.013 0 2.809-1.08 4.158-3.032 4.158-1.94 0-2.954-1.349-2.954-4.058z"/></g></symbol><symbol viewBox="0 0 40 40" id="ys-icon-set-forward-right" xmlns="http://www.w3.org/2000/svg"><path fill="none" stroke="currentColor" stroke-linecap="round" stroke-linejoin="round" stroke-width="2" d="M15 10l10 10-10 10"/></symbol><symbol viewBox="0 0 40 40" id="ys-icon-set-gaming" xmlns="http://www.w3.org/2000/svg"><g fill="none" fill-rule="evenodd"><path stroke="currentColor" stroke-width="2" d="M20 11h9.47c2.85 0 5.69 1.87 7.58 7.48 1.9 5.6.95 10.28-2.84 12.15-2.46 1.21-5.53-.54-9.2-5.24a1.9 1.9 0 0 0-.78-.6 11.3 11.3 0 0 0-4.23-.7c-1.65 0-3.06.23-4.23.7a1.9 1.9 0 0 0-.79.6c-3.66 4.7-6.73 6.45-9.2 5.24C2 28.76 1.06 24.08 2.96 18.48 4.85 12.87 7.68 11 10.53 11H20z"/><path stroke="currentColor" stroke-linecap="round" stroke-linejoin="round" stroke-width="2" d="M10.09 17v6.04M13 20H7"/><circle cx="32.5" cy="19.5" r="1.5" fill="currentColor" fill-rule="nonzero"/><circle cx="29.5" cy="16.5" r="1.5" fill="currentColor" fill-rule="nonzero"/><circle cx="29.5" cy="22.5" r="1.5" fill="currentColor" fill-rule="nonzero"/><circle cx="26.5" cy="19.5" r="1.5" fill="currentColor" fill-rule="nonzero"/></g></symbol><symbol viewBox="0 0 40 40" id="ys-icon-set-genre" xmlns="http://www.w3.org/2000/svg"><g fill="none" fill-rule="evenodd" stroke="currentColor" stroke-width="2"><circle cx="20.5" cy="20.5" r="3.5" stroke-linecap="square"/><circle cx="20.5" cy="20.5" r="13.5" stroke-linecap="square"/><path d="M28.31 29.74V16.85c0-.36.26-.66.6-.73l4.75-1.08m-5.35 6.45l5.7-1.39"/><ellipse cx="25.66" cy="30.11" rx="2.66" ry="1.88"/></g></symbol><symbol viewBox="0 0 40 40" id="ys-icon-set-hdmi" xmlns="http://www.w3.org/2000/svg"><g fill="none" fill-rule="evenodd"><rect width="19.43" height="3.7" x="10.25" y="18.65" fill="currentColor" fill-rule="nonzero" rx="1.85"/><path stroke="currentColor" stroke-linecap="square" stroke-width="2" d="M2.85 15.89v4.41c0 .43.15.85.42 1.18l3.95 4.81c.35.44.88.69 1.44.69h22.56c.55 0 1.07-.25 1.43-.68l4-4.82c.27-.33.43-.75.43-1.18v-4.41c0-1.03-.84-1.87-1.87-1.87H4.71c-1.03 0-1.86.84-1.86 1.87z"/></g></symbol><symbol viewBox="0 0 40 40" id="ys-icon-set-help" xmlns="http://www.w3.org/2000/svg"><g fill="none" fill-rule="evenodd"><path stroke="currentColor" stroke-width="2" d="M20 3a17 17 0 1 0 0 34 17 17 0 0 0 0-34"/><path stroke="currentColor" stroke-linecap="round" stroke-linejoin="round" stroke-width="2" d="M16 15.67c0-3.11 1.55-4.67 4.65-4.67 4.64 0 5.29 4.82 3.2 6.75C22.5 19 20.76 20 19.87 21.5c-.34.56-.46 1.73-.37 3.5"/><circle cx="19.5" cy="29.5" r="1.5" fill="currentColor" fill-rule="nonzero"/></g></symbol><symbol viewBox="0 0 40 40" id="ys-icon-set-hitlist" xmlns="http://www.w3.org/2000/svg"><g fill="none" fill-rule="evenodd"><path stroke="currentColor" stroke-linecap="round" stroke-width="2" d="M7 27.58h11.7M7 18.73h27M7 9.88h27"/><path fill="currentColor" fill-rule="nonzero" d="M29.77 31.12l-2.4 1.26a.5.5 0 0 1-.73-.52l.46-2.67a.5.5 0 0 0-.14-.45l-1.94-1.89a.5.5 0 0 1 .28-.85l2.68-.39a.5.5 0 0 0 .37-.27l1.2-2.43a.5.5 0 0 1 .9 0l1.2 2.43a.5.5 0 0 0 .37.27l2.68.39a.5.5 0 0 1 .28.85l-1.94 1.9a.5.5 0 0 0-.14.44l.46 2.67a.5.5 0 0 1-.73.52l-2.4-1.26a.5.5 0 0 0-.46 0z"/></g></symbol><symbol viewBox="0 0 40 40" id="ys-icon-set-home" xmlns="http://www.w3.org/2000/svg"><g fill="none" fill-rule="evenodd" stroke="currentColor" stroke-width="2"><path stroke-linecap="square" d="M31.714 15.918v17.131c0 .996-.803 1.803-1.794 1.803H10.179a1.799 1.799 0 0 1-1.795-1.803V15.918"/><path stroke-linecap="square" d="M17.357 33.05v-6.312a1.8 1.8 0 0 1 1.795-1.804h1.795a1.8 1.8 0 0 1 1.794 1.804v6.311"/><path stroke-linecap="round" d="M3.406 18.144L19.41 7.23a1.8 1.8 0 0 1 2.067.027l15.112 10.887"/></g></symbol><symbol viewBox="0 0 40 40" id="ys-icon-set-humax" xmlns="http://www.w3.org/2000/svg"><g fill="none" fill-rule="evenodd"><rect width="29" height="12" x="5.25" y="13.77" stroke="currentColor" stroke-width="2" rx="1.99"/><circle cx="22.25" cy="19.77" r="1" fill="currentColor" fill-rule="nonzero"/><circle cx="28.25" cy="19.77" r="2" stroke="currentColor" stroke-linecap="square" stroke-width="2"/></g></symbol><symbol viewBox="0 0 40 40" id="ys-icon-set-info" xmlns="http://www.w3.org/2000/svg"><g fill="none" fill-rule="evenodd" transform="translate(3 3)"><path stroke="currentColor" stroke-width="2" d="M17 0a17 17 0 1 1 0 34 17 17 0 0 1 0-34"/><rect width="2" height="15" x="16" y="12" fill="currentColor" fill-rule="nonzero" rx="1"/><rect width="2" height="3" x="16" y="7" fill="currentColor" fill-rule="nonzero" rx="1"/></g></symbol><symbol viewBox="0 0 40 40" id="ys-icon-set-landline" xmlns="http://www.w3.org/2000/svg"><g fill="none" fill-rule="evenodd" stroke="currentColor" stroke-width="2"><path d="M38 20.49C38 30.09 29.78 38 19.51 38 10.06 38 2 29.94 2 20.49 2 10.22 9.9 2 19.51 2A18.21 18.21 0 0 1 38 20.49z"/><path stroke-linecap="round" stroke-linejoin="round" d="M13 19v8m14-8v8m-3-14h-8"/></g></symbol><symbol viewBox="0 0 40 40" id="ys-icon-set-link" xmlns="http://www.w3.org/2000/svg"><g fill="none" fill-rule="evenodd" stroke="currentColor" stroke-linecap="round" stroke-linejoin="round" stroke-width="1.95"><path d="M16.22 12.52l-3.2-3.2c-2.21-2.1-4.49-1.95-6.82.44-2.34 2.39-2.49 4.66-.44 6.82l9.58 9.59c2.31 1.9 4.59 1.75 6.83-.44 2.24-2.18 2.39-4.45.44-6.82L21 17.3"/><path d="M24.63 28.28l3.2 3.19c2.27 2.1 4.54 1.96 6.82-.44 2.28-2.4 2.42-4.67.44-6.82l-9.59-9.59c-2.16-2-4.44-1.85-6.82.44-2.39 2.3-2.53 4.57-.44 6.83l1.6 1.6"/></g></symbol><symbol viewBox="0 0 40 40" id="ys-icon-set-list" xmlns="http://www.w3.org/2000/svg"><path d="M6 28h3m-3-8.5h3M6 11h3m5 8.5h18.994M14 28h18.994M14 11h18.994" fill="none" fill-rule="evenodd" stroke="currentColor" stroke-linecap="round" stroke-width="2"/></symbol><symbol viewBox="0 0 40 40" id="ys-icon-set-live-radio" xmlns="http://www.w3.org/2000/svg"><g fill="none" fill-rule="evenodd"><rect width="25" height="17" x="8" y="16" stroke="currentColor" stroke-linecap="square" stroke-width="2.017" rx="2.017"/><path fill="currentColor" d="M28.5 22a1.5 1.5 0 1 0-.001-3 1.5 1.5 0 0 0 .002 3"/><path stroke="currentColor" stroke-linecap="round" stroke-width="1.008" d="M11.5 20.5h12"/><path stroke="currentColor" stroke-linecap="round" stroke-width="2.017" d="M14 8l16 8"/></g></symbol><symbol viewBox="0 0 40 40" id="ys-icon-set-live-tv" xmlns="http://www.w3.org/2000/svg"><g fill="none" fill-rule="evenodd"><path stroke="currentColor" stroke-linecap="round" stroke-linejoin="round" stroke-width="2" d="M13.1 31.81h14.7"/><rect width="34.91" height="20.15" x="3" y="8" stroke="currentColor" stroke-width="2" rx="1.83"/><path fill="currentColor" d="M17.99 14.18l6.61 3.31a.39.39 0 0 1 0 .7L18 21.48a.39.39 0 0 1-.56-.34v-6.62a.39.39 0 0 1 .56-.35z"/></g></symbol><symbol viewBox="0 0 40 40" id="ys-icon-set-location" xmlns="http://www.w3.org/2000/svg"><g fill="none" fill-rule="evenodd"><path stroke="currentColor" stroke-width="2" d="M30 12.877c0 5.73-10 20.873-10 20.873S10 18.608 10 12.877C10 7.146 14.477 2.5 20 2.5s10 4.646 10 10.377z"/><path fill="currentColor" d="M23.125 12.5a3.125 3.125 0 1 1-6.25 0 3.125 3.125 0 0 1 6.25 0z"/></g></symbol><symbol viewBox="0 0 40 40" id="ys-icon-set-lock" xmlns="http://www.w3.org/2000/svg"><g fill="none" fill-rule="evenodd"><rect width="22" height="16" x="9" y="18" stroke="currentColor" stroke-linecap="square" stroke-width="2" rx="2.02"/><path fill="currentColor" fill-rule="nonzero" d="M19 25.73A2 2 0 0 1 20.04 22c1.15 0 2.05.94 2.05 2 0 .78-.44 1.45-1.09 1.78V29a1 1 0 0 1-2 0v-3.27z"/><path stroke="currentColor" stroke-linecap="square" stroke-width="2" d="M27 16.92V14a7 7 0 0 0-14 0v2.92"/></g></symbol><symbol viewBox="0 0 40 40" id="ys-icon-set-mail" xmlns="http://www.w3.org/2000/svg"><g fill="none" fill-rule="evenodd" stroke="currentColor" stroke-width="2"><rect width="36" height="22" x="2" y="9" rx="1"/><path stroke-linecap="round" stroke-linejoin="round" d="M3 10.3l17 12.9 17-12.9"/></g></symbol><symbol viewBox="0 0 40 40" id="ys-icon-set-maximize" xmlns="http://www.w3.org/2000/svg"><g fill="none" fill-rule="evenodd" stroke="currentColor" stroke-width="2"><path d="M33.23 35H6.77C5.79 35 5 34.2 5 33.23V6.77C5 5.79 5.8 5 6.77 5h26.46c.98 0 1.77.8 1.77 1.77v26.46c0 .98-.8 1.77-1.77 1.77z"/><path d="M29 17v-6m-6 0h6m-6 6l4.5-4.5M11 23v6m6 0h-6m6-6l-4.5 4.5" stroke-linecap="round" stroke-linejoin="round"/></g></symbol><symbol viewBox="0 0 40 40" id="ys-icon-set-minimize" xmlns="http://www.w3.org/2000/svg"><g fill="none" fill-rule="evenodd" stroke="currentColor" stroke-width="2"><path d="M33.23 35H6.77C5.79 35 5 34.2 5 33.23V6.77C5 5.79 5.8 5 6.77 5h26.46c.98 0 1.77.8 1.77 1.77v26.46c0 .98-.8 1.77-1.77 1.77z"/><path d="M16.02 30.06v-6m-6 0h6m-6 6l4.5-4.5M24 11v6m6 0h-6m6-6l-5 5" stroke-linecap="round" stroke-linejoin="round"/></g></symbol><symbol viewBox="0 0 40 40" id="ys-icon-set-mix-package" xmlns="http://www.w3.org/2000/svg"><g fill="none" fill-rule="evenodd"><path stroke="currentColor" stroke-width="2" d="M23.42 7.09h6.95c1 0 1.81.81 1.81 1.82v6.97c0 1-.81 1.82-1.81 1.82h-6.95c-1 0-1.82-.82-1.82-1.82V8.9c0-1 .81-1.82 1.82-1.82zM8.9 22.54h6.94c1 0 1.82.82 1.82 1.82v6.97c0 1-.81 1.82-1.82 1.82H8.91c-1 0-1.82-.81-1.82-1.82v-6.97c0-1 .81-1.82 1.82-1.82z"/><path fill="currentColor" d="M26.84 21.72l-2.48 4.2a.35.35 0 0 0 .3.53h4.97a.35.35 0 0 0 .3-.53l-2.48-4.2a.35.35 0 0 0-.6 0z"/><path stroke="currentColor" stroke-linecap="round" stroke-width="2" d="M27.14 25.27v1.56c0 .78-.1 3.88-3.73 3.88"/><path fill="currentColor" d="M12.73 17.91l2.48-4.2a.35.35 0 0 0-.3-.52H9.95a.35.35 0 0 0-.3.53l2.48 4.2a.35.35 0 0 0 .6 0z"/><path stroke="currentColor" stroke-linecap="round" stroke-width="2" d="M12.43 15.27V13.7c0-.77.1-3.88 3.74-3.88"/></g></symbol><symbol viewBox="0 0 40 40" id="ys-icon-set-mobile" xmlns="http://www.w3.org/2000/svg"><g fill="none" fill-rule="evenodd"><rect width="20" height="34" x="10" y="3" stroke="currentColor" stroke-width="2" rx="2"/><circle cx="20" cy="32" r="2" fill="currentColor" fill-rule="nonzero"/></g></symbol><symbol viewBox="0 0 40 40" id="ys-icon-set-mobile-broadband" xmlns="http://www.w3.org/2000/svg"><g fill="none" fill-rule="evenodd"><path stroke="currentColor" stroke-linecap="round" stroke-linejoin="round" stroke-width="2" d="M16 8c-1.827 1.407-3 3.569-3 6 0 2.43 1.173 4.593 3 6m4 16V21"/><path fill="currentColor" d="M20 17a3 3 0 1 1 0-6 3 3 0 1 1 0 6"/><path stroke="currentColor" stroke-linecap="round" stroke-linejoin="round" stroke-width="2" d="M24 8c1.827 1.407 3 3.569 3 6 0 2.43-1.173 4.593-3 6M12 4C8.955 6.344 7 9.948 7 14c0 4.05 1.955 7.656 5 10M28 4c3.045 2.344 5 5.948 5 10 0 4.05-1.955 7.656-5 10"/></g></symbol><symbol viewBox="0 0 40 40" id="ys-icon-set-mobile-router" xmlns="http://www.w3.org/2000/svg"><g fill="none" fill-rule="evenodd"><path stroke="currentColor" stroke-width="1.975" d="M27.255 18.588l-4.247-4.246a1.975 1.975 0 0 0-2.793 0l-12.3 12.3a1.975 1.975 0 0 0 0 2.794l4.246 4.246a1.975 1.975 0 0 0 2.793 0l12.3-12.3a1.975 1.975 0 0 0 0-2.794z"/><path fill="currentColor" d="M23.997 13.781c1.066-1.066 2.564-.91 3.585.11 1.02 1.02 1.176 2.519.11 3.585-1.067 1.066-4.762-2.628-3.695-3.695z"/><path stroke="currentColor" stroke-linecap="round" stroke-linejoin="round" stroke-width="1.975" d="M37.573 15.974c.37-3.337-.66-6.72-3.124-9.183-2.46-2.46-5.836-3.492-9.167-3.126m.538 5.116c1.93-.283 3.908.273 5.332 1.697s1.98 3.402 1.697 5.332"/><path stroke="currentColor" stroke-width="1.975" d="M7.667 29.188L6.253 30.6a1.235 1.235 0 0 0 0 1.746L8.9 34.994a1.235 1.235 0 0 0 1.746 0l1.414-1.413-4.393-4.393z"/></g></symbol><symbol viewBox="0 0 40 40" id="ys-icon-set-mobile-router-2" xmlns="http://www.w3.org/2000/svg"><g fill="none" fill-rule="evenodd" stroke="currentColor" stroke-linecap="round" stroke-linejoin="round"><rect width="18" height="26" x="11" y="11" stroke-width="2" rx="1.98"/><path stroke-width="2" d="M20 18v-3m7.16-12.37a9.5 9.5 0 0 1 7.1 2.93c2.02 2.05 3 4.7 2.9 7.19"/><path stroke-width="1.98" d="M27.16 7.28a5.05 5.05 0 0 1 5.42 5.48"/></g></symbol><symbol viewBox="0 0 40 40" id="ys-icon-set-mobile-subscriptions" xmlns="http://www.w3.org/2000/svg"><g fill="none" fill-rule="evenodd" stroke="currentColor" stroke-width="2"><path d="M11 4h9.2c.5 0 1 .2 1.4.6l8.8 8.8c.4.4.6.9.6 1.4V34a2 2 0 0 1-2 2H11a2 2 0 0 1-2-2V6c0-1.1.9-2 2-2z"/><rect width="14" height="14" x="13" y="18" rx="2"/><path stroke-linecap="square" d="M21 32v-8m.5 4h5m-13-4h13"/></g></symbol><symbol viewBox="0 0 40 40" id="ys-icon-set-more-options" xmlns="http://www.w3.org/2000/svg"><path d="M9 20a2 2 0 1 0 4 0 2 2 0 0 0-4 0m8.87.05a2 2 0 1 0 4 0 2 2 0 0 0-4 0m9.13 0a2 2 0 1 0 4 0 2 2 0 0 0-4 0" fill="currentColor" fill-rule="evenodd"/></symbol><symbol viewBox="0 0 40 40" id="ys-icon-set-most-played" xmlns="http://www.w3.org/2000/svg"><g fill="none" fill-rule="evenodd"><path fill="currentColor" d="M23.1 21.03l-5.75 3.18a.73.73 0 0 1-1.08-.64v-6.36a.73.73 0 0 1 1.08-.63l5.75 3.18a.73.73 0 0 1 0 1.27z"/><path stroke="currentColor" stroke-linecap="round" stroke-width="2" d="M19.12 33.17c-7.16 0-12.96-5.89-12.96-13.16 0-7.27 5.8-13.16 12.96-13.16 6.4 0 11.72 4.72 12.77 10.92"/><path fill="currentColor" fill-rule="nonzero" d="M30.02 32.32l-2.33 1.23a.49.49 0 0 1-.71-.52l.44-2.6a.49.49 0 0 0-.14-.43l-1.89-1.84a.49.49 0 0 1 .27-.83l2.62-.38c.16-.03.3-.13.36-.27l1.17-2.37a.49.49 0 0 1 .88 0l1.17 2.37c.07.14.2.24.36.27l2.62.38a.49.49 0 0 1 .27.83L33.2 30a.49.49 0 0 0-.13.43l.44 2.6a.49.49 0 0 1-.7.52l-2.34-1.23a.49.49 0 0 0-.46 0z"/></g></symbol><symbol viewBox="0 0 40 40" id="ys-icon-set-movies" xmlns="http://www.w3.org/2000/svg"><g fill="none" fill-rule="evenodd" stroke="currentColor" stroke-width="2"><path stroke-linecap="square" d="M5.545 16.02h28.432c.988 0 1.79.802 1.79 1.79v14.788a1.79 1.79 0 0 1-1.79 1.79H7.335a1.79 1.79 0 0 1-1.79-1.79V16.02zm.867-6.93l26.384-3.83a1.79 1.79 0 0 1 2.031 1.53l.384 2.818a1.79 1.79 0 0 1-1.517 2.013L5.522 15.71l-.627-4.607A1.79 1.79 0 0 1 6.412 9.09z"/><path stroke-linecap="round" stroke-linejoin="round" d="M10.878 8.673l-2.667 6.888m9.779-7.806l-2.668 6.429m9.334-7.347l-2.222 5.97m8.888-6.889l-2.222 5.97"/></g></symbol><symbol viewBox="0 0 40 40" id="ys-icon-set-mstv" xmlns="http://www.w3.org/2000/svg"><g fill="none" fill-rule="evenodd"><rect width="34.1" height="12.46" x="3.28" y="13.77" stroke="currentColor" stroke-width="2" rx="1.8"/><ellipse cx="20.33" cy="20" fill="currentColor" fill-rule="nonzero" rx="2.69" ry="2.67"/><ellipse cx="7.77" cy="20" fill="currentColor" fill-rule="nonzero" rx="1" ry="1"/><ellipse cx="10.46" cy="20" fill="currentColor" fill-rule="nonzero" rx="1" ry="1"/><ellipse cx="13.15" cy="20" fill="currentColor" fill-rule="nonzero" rx="1" ry="1"/><path fill="#002319" fill-rule="nonzero" stroke="currentColor" stroke-linecap="round" stroke-width="2" d="M32.89 19.11v1.78"/></g></symbol><symbol viewBox="0 0 40 40" id="ys-icon-set-music" xmlns="http://www.w3.org/2000/svg"><g fill="none" fill-rule="evenodd" stroke="currentColor" stroke-width="2"><path stroke-linecap="round" stroke-linejoin="round" d="M13 32V9.85c0-.64.43-1.2 1.02-1.32l16.46-3.5c.7-.15 1.36.32 1.5 1.05l.02.27L31.98 28M13 18.18l19-4.04"/><ellipse cx="8.5" cy="32" rx="4.5" ry="3"/><ellipse cx="27.5" cy="28" rx="4.5" ry="3"/></g></symbol><symbol viewBox="0 0 40 40" id="ys-icon-set-mute" xmlns="http://www.w3.org/2000/svg"><g fill="none" fill-rule="evenodd" stroke="currentColor" stroke-width="2"><path d="M5.31 12.85H8.7c.31 0 .62-.11.85-.32l6.54-5.63a1.31 1.31 0 0 1 2.17 1v24.27a1.31 1.31 0 0 1-2.17 1L9.5 27.5c-.24-.2-.54-.32-.85-.32H5.3c-.72 0-1.31-.59-1.31-1.31v-11.7c0-.73.59-1.32 1.31-1.32z"/><path stroke-linecap="round" d="M24.68 14.22l11.36 11.51m-.36-11.51L24.3 25.73"/></g></symbol><symbol viewBox="0 0 40 40" id="ys-icon-set-news" xmlns="http://www.w3.org/2000/svg"><g fill="none" fill-rule="evenodd"><path stroke="currentColor" stroke-width="2" d="M31 10h3a1 1 0 0 1 1 1v21.98a2 2 0 0 1-2 2h-1a2 2 0 0 1-2-2V11a1 1 0 0 1 1-1z"/><path stroke="currentColor" stroke-width="2" d="M33 35H8a2 2 0 0 1-2-2V7c0-1.1.9-2 2-2h20a2 2 0 0 1 2 2v7.4"/><path stroke="currentColor" stroke-linecap="round" stroke-linejoin="round" stroke-width="2" d="M11 26h14m-14-4h14m-14 8h14"/><rect width="16" height="10" x="10" y="9" fill="currentColor" fill-rule="nonzero" rx="1"/></g></symbol><symbol viewBox="0 0 40 40" id="ys-icon-set-next" xmlns="http://www.w3.org/2000/svg"><g fill="none" fill-rule="evenodd" stroke="currentColor" stroke-width="2"><path d="M29.11 21.75l-15.14 8.42A2 2 0 0 1 11 28.43V11.57a2 2 0 0 1 2.97-1.74l15.14 8.42a2 2 0 0 1 0 3.5z"/><path stroke-linecap="round" d="M31 9v22"/></g></symbol><symbol viewBox="0 0 40 40" id="ys-icon-set-notifications" xmlns="http://www.w3.org/2000/svg"><g fill="none" fill-rule="evenodd" stroke="currentColor" stroke-linecap="round" stroke-width="2"><path d="M30.41 21.15c0 5.487-4.506 9.933-10.064 9.933s-10.065-4.446-10.065-9.932c0-5.487 4.507-9.935 10.065-9.935s10.065 4.448 10.065 9.935zm-16.922 7.342l-2.49 4.824m16.205-4.824l2.49 4.824"/><path d="M20.084 14.936v6.394l2.721 5.298M12.084 9.186C14.208 7.062 17 6 20.464 6c3.462 0 6.425 1.062 8.887 3.186"/></g></symbol><symbol viewBox="0 0 40 40" id="ys-icon-set-on" xmlns="http://www.w3.org/2000/svg"><path d="M14.942 9C9.713 11.025 6 16.084 6 22.022 6 29.739 12.267 36 20 36c7.731 0 14-6.26 14-13.978C34 16.084 30.286 11.026 25.058 9M20 19V4" fill="none" fill-rule="evenodd" stroke="currentColor" stroke-linecap="round" stroke-width="2"/></symbol><symbol viewBox="0 0 40 40" id="ys-icon-set-operating-status" xmlns="http://www.w3.org/2000/svg"><g fill="none" fill-rule="evenodd"><path stroke="currentColor" stroke-width="2" d="M18.908 4.691L5.178 29.393a1.25 1.25 0 0 0 .485 1.7 1.25 1.25 0 0 0 .607.157h27.46c.69 0 1.25-.56 1.25-1.25a1.25 1.25 0 0 0-.157-.607L21.093 4.69a1.25 1.25 0 0 0-1.7-.485 1.25 1.25 0 0 0-.485.485z"/><path stroke="currentColor" stroke-linecap="round" stroke-linejoin="round" stroke-width="2" d="M20 14.75V22"/><path fill="currentColor" fill-rule="nonzero" d="M21 25.75a1 1 0 1 1-2 0 1 1 0 0 1 2 0"/></g></symbol><symbol viewBox="0 0 40 40" id="ys-icon-set-orientation-lock" xmlns="http://www.w3.org/2000/svg"><g fill="none" fill-rule="evenodd"><path fill="currentColor" d="M33.48 22.5l-3.62-6.03a.5.5 0 0 1 .43-.77h7.24a.5.5 0 0 1 .43.77l-3.62 6.02a.5.5 0 0 1-.86 0z"/><path stroke="currentColor" stroke-linecap="round" stroke-width="2" d="M31.96 29.12a15.99 15.99 0 0 1-29.56-8.5 16 16 0 0 1 31.91-1.65"/><g stroke="currentColor" stroke-linecap="square" stroke-width="2" transform="translate(12.5 11.87)"><rect width="11.25" height="8.86" y="6.09" fill="currentColor" rx="1.07"/><path d="M9.2 5.5V3.87C9.2 1.74 7.6 0 5.63 0 3.65 0 2.04 1.74 2.04 3.88v1.61"/></g></g></symbol><symbol viewBox="0 0 40 40" id="ys-icon-set-outage-warning" xmlns="http://www.w3.org/2000/svg"><g fill="none" fill-rule="evenodd"><path stroke="currentColor" stroke-width="2" d="M17.96 6.07L3.57 31.66a2.9 2.9 0 0 0 2.54 4.33h28.78a2.9 2.9 0 0 0 2.54-4.33l-14.4-25.6a2.9 2.9 0 0 0-5.07 0z"/><path stroke="currentColor" stroke-linecap="round" stroke-linejoin="round" stroke-width="2" d="M20.5 15.64v8.27"/><path fill="currentColor" d="M22 28.73a1.5 1.5 0 1 1-3 0 1.5 1.5 0 0 1 3 0"/></g></symbol><symbol viewBox="0 0 40 40" id="ys-icon-set-parental-lock" xmlns="http://www.w3.org/2000/svg"><g fill="none" fill-rule="evenodd"><path fill="currentColor" fill-rule="nonzero" d="M13.94 19.7c0-.58.46-1.02 1.03-1.02a1.02 1.02 0 1 1 0 2.04c-.57 0-1.03-.47-1.03-1.02zm9.54 0c0-.58.47-1.02 1.04-1.02a1.02 1.02 0 1 1 0 2.04c-.57 0-1.04-.47-1.04-1.02z"/><path fill="currentColor" d="M16.96 22.73c0 1.1 1.18 2.62 2.62 2.62 1.45 0 2.62-1.52 2.62-2.62s-1.17-1.43-2.62-1.43c-1.44 0-2.62.33-2.62 1.43z"/><path stroke="currentColor" stroke-linecap="round" stroke-width="2" d="M21.76 31.61A11.98 11.98 0 0 1 7.53 19.97c0-1.02.13-2.04.4-3.03a4.89 4.89 0 0 1-1.8-3.8c0-2.77 2.27-5 5.05-5a5.2 5.2 0 0 1 3.22 1.13 12.51 12.51 0 0 1 10.34 0 5.2 5.2 0 0 1 3.21-1.13 5.02 5.02 0 0 1 5.05 5c0 1.48-.65 2.86-1.8 3.8.12.45.22.9.29 1.36"/><g transform="translate(24 22)"><rect width="12" height="9.57" y="5.43" fill="currentColor" rx="1.14"/><path stroke="currentColor" stroke-linecap="square" stroke-width="2" d="M9.14 3.58A3.1 3.1 0 0 0 6 .54a3.1 3.1 0 0 0-3.14 3.04v3.07h6.28V3.58z"/></g></g></symbol><symbol viewBox="0 0 40 40" id="ys-icon-set-pause" xmlns="http://www.w3.org/2000/svg"><g fill="none" fill-rule="evenodd"><circle cx="20" cy="20" r="16" stroke="currentColor" stroke-linecap="square" stroke-width="2"/><path fill="currentColor" d="M16.2 14h1.6c.7 0 1.2.5 1.2 1.2v9.6c0 .7-.5 1.2-1.2 1.2h-1.6c-.7 0-1.2-.5-1.2-1.2v-9.6c0-.7.5-1.2 1.2-1.2zm6 0h1.6c.7 0 1.2.5 1.2 1.2v9.6c0 .7-.5 1.2-1.2 1.2h-1.6c-.7 0-1.2-.5-1.2-1.2v-9.6c0-.7.5-1.2 1.2-1.2z"/></g></symbol><symbol viewBox="0 0 40 40" id="ys-icon-set-pause2" xmlns="http://www.w3.org/2000/svg"><path d="M24 10h3a2 2 0 0 1 2 2v16a2 2 0 0 1-2 2h-3a2 2 0 0 1-2-2V12c0-1.1.9-2 2-2zm-11 0h3a2 2 0 0 1 2 2v16a2 2 0 0 1-2 2h-3a2 2 0 0 1-2-2V12c0-1.1.9-2 2-2z" fill="none" fill-rule="evenodd" stroke="currentColor" stroke-linecap="square" stroke-width="2"/></symbol><symbol viewBox="0 0 40 40" id="ys-icon-set-payment-card" xmlns="http://www.w3.org/2000/svg"><g fill="none" fill-rule="evenodd"><rect width="30" height="17.6" x="5" y="11" stroke="currentColor" stroke-width="2" rx="4"/><path fill="currentColor" fill-rule="nonzero" d="M5.5 15h30v4h-30z"/></g></symbol><symbol viewBox="0 0 40 40" id="ys-icon-set-person" xmlns="http://www.w3.org/2000/svg"><g fill="none" fill-rule="evenodd" stroke="currentColor" stroke-width="2"><circle cx="20" cy="7" r="3"/><path stroke-linecap="round" stroke-linejoin="round" d="M18 13h4a4 4 0 0 1 4 4v8.6a2 2 0 0 1-2 2h-1V36h-6v-8.4h-1a2 2 0 0 1-2-2V17a4 4 0 0 1 4-4z"/></g></symbol><symbol viewBox="0 0 40 40" id="ys-icon-set-personal-help" xmlns="http://www.w3.org/2000/svg"><g fill="none" fill-rule="evenodd"><path stroke="currentColor" stroke-linecap="round" stroke-width="2" d="M5 36.04C5.108 32.68 6.627 31 9.559 31h6.92c2.724 0 4.213 1.68 4.467 5.04"/><circle cx="13.2" cy="23.2" r="4.2" stroke="currentColor" stroke-width="2"/><g transform="translate(19 5)"><path stroke="currentColor" stroke-width="2" d="M8 0a8 8 0 1 0 0 16A8 8 0 0 0 8 0"/><path stroke="currentColor" stroke-linecap="round" stroke-linejoin="round" stroke-width="1.657" d="M6 5.668C6 4.556 6.69 4 8.068 4c2.069 0 2.357 1.721 1.428 2.41-.402.298-.9.606-1.496.923V9"/><circle cx="8" cy="12" r="1" fill="currentColor" fill-rule="nonzero"/></g></g></symbol><symbol viewBox="0 0 40 40" id="ys-icon-set-picture-in-picture" xmlns="http://www.w3.org/2000/svg"><g fill="none" fill-rule="evenodd"><rect width="34" height="21" x="3" y="10" stroke="currentColor" stroke-width="2" rx="2"/><rect width="15" height="8" x="19" y="20" fill="currentColor" rx="2"/><path d="M14.5 15v6m-6 0h6m-6-6l4.5 4.5" stroke="currentColor" stroke-linecap="round" stroke-linejoin="round" stroke-width="2"/></g></symbol><symbol viewBox="0 0 40 40" id="ys-icon-set-pin-active" xmlns="http://www.w3.org/2000/svg"><g fill="none" fill-rule="evenodd"><circle cx="20.5" cy="14.5" r="7.5" fill="currentColor" fill-rule="nonzero"/><path stroke="currentColor" stroke-linecap="round" stroke-width="2" d="M20.5 21.02v12.62"/></g></symbol><symbol viewBox="0 0 40 40" id="ys-icon-set-pin-inactive" xmlns="http://www.w3.org/2000/svg"><g fill="none" fill-rule="evenodd" stroke="currentColor" stroke-linecap="round" stroke-width="2"><circle cx="20.5" cy="14.5" r="7.5"/><path d="M20.5 22v11.64"/></g></symbol><symbol viewBox="0 0 40 40" id="ys-icon-set-play" xmlns="http://www.w3.org/2000/svg"><g fill="none" fill-rule="evenodd"><path fill="currentColor" d="M26.167 21.005l-8.952 5.011a1.152 1.152 0 0 1-1.715-1.005V14.989a1.152 1.152 0 0 1 1.715-1.005l8.952 5.01a1.152 1.152 0 0 1 0 2.011z"/><circle cx="20" cy="20" r="16" stroke="currentColor" stroke-linecap="square" stroke-width="2"/></g></symbol><symbol viewBox="0 0 40 40" id="ys-icon-set-play2" xmlns="http://www.w3.org/2000/svg"><path fill="none" stroke="currentColor" stroke-width="2" d="M30.11 21.747l-15.137 8.426A2 2 0 0 1 12 28.425v-16.85a2 2 0 0 1 2.973-1.748l15.137 8.425a2 2 0 0 1 0 3.495z"/></symbol><symbol viewBox="0 0 40 40" id="ys-icon-set-playlist" xmlns="http://www.w3.org/2000/svg"><g fill="none" fill-rule="evenodd"><rect width="29.76" height="20.24" x="5.25" y="14.43" stroke="currentColor" stroke-linecap="square" stroke-width="2" rx="1.96"/><path stroke="currentColor" stroke-linecap="round" stroke-width="2" d="M8.48 10.47h23.3M11.07 6.55h18.12"/><path fill="currentColor" d="M23.29 24.79l-5.82 3.22a.73.73 0 0 1-1.08-.64v-6.43a.73.73 0 0 1 1.08-.64l5.82 3.22a.73.73 0 0 1 0 1.27z" opacity=".9"/></g></symbol><symbol viewBox="0 0 40 40" id="ys-icon-set-plus" xmlns="http://www.w3.org/2000/svg"><path d="M10 20h21M20 10v21" fill="none" fill-rule="evenodd" stroke="currentColor" stroke-linecap="round" stroke-width="2"/></symbol><symbol viewBox="0 0 40 40" id="ys-icon-set-power" xmlns="http://www.w3.org/2000/svg"><path fill="none" stroke="currentColor" stroke-width="2" d="M25.75 16.42h-4l2.66-9.21c.34-1.07.53-2.21-.42-2.21h-4.85c-.6 0-1.13.47-1.29 1.17L14.05 21c-.25 1.04.4 2.11 1.3 2.11h3.74l-.53 10.29c-.08 1.58 1.66 2.2 2.35.88l5.9-15.52c.52-1.04-.08-2.34-1.06-2.34z"/></symbol><symbol viewBox="0 0 40 40" id="ys-icon-set-preview" xmlns="http://www.w3.org/2000/svg"><g fill="none" fill-rule="evenodd"><path stroke="currentColor" stroke-linejoin="round" stroke-width="2" d="M20 29c5.9 0 11.22-3.1 16-9.27C31.22 13.9 25.9 11 20 11S8.78 13.9 4 19.73C8.78 25.9 14.1 29 20 29z"/><path fill="currentColor" d="M21.77 14.26a3 3 0 1 0 3.97 3.97 6 6 0 1 1-3.97-3.97z"/></g></symbol><symbol viewBox="0 0 40 40" id="ys-icon-set-print" xmlns="http://www.w3.org/2000/svg"><g fill="none" fill-rule="evenodd"><path stroke="currentColor" stroke-width="2" d="M13 29H5c-1.1 0-2-.8-2-1.8V14.8c0-1 .9-1.8 2-1.8h30c1.1 0 2 .8 2 1.8v12.4c0 1-.9 1.8-2 1.8h-8"/><rect width="14" height="10" x="13" y="25" stroke="currentColor" stroke-width="2" rx="2"/><path stroke="currentColor" stroke-width="2" d="M13 12.3V7c0-1.1.9-2 2-2h10a2 2 0 0 1 2 2v5"/><circle cx="28.5" cy="18.5" r="1.5" fill="currentColor" fill-rule="nonzero"/><circle cx="32.5" cy="18.5" r="1.5" fill="currentColor" fill-rule="nonzero"/></g></symbol><symbol viewBox="0 0 40 40" id="ys-icon-set-profile" xmlns="http://www.w3.org/2000/svg"><g fill="none" fill-rule="evenodd" stroke="currentColor" stroke-width="2"><path stroke-linecap="round" d="M8 34c.17-5.6 2.6-8.4 7.3-8.4h10.54c4.37 0 6.75 2.8 7.16 8.4"/><ellipse cx="20.02" cy="13.93" rx="8.17" ry="7.93"/></g></symbol><symbol viewBox="0 0 40 40" id="ys-icon-set-recent-playlist" xmlns="http://www.w3.org/2000/svg"><g fill="none" fill-rule="evenodd"><path fill="currentColor" d="M23.29 20.2l-5.82 3.22a.73.73 0 0 1-1.08-.64v-6.43a.73.73 0 0 1 1.08-.64l5.82 3.22a.73.73 0 0 1 0 1.27z"/><path stroke="currentColor" stroke-linecap="round" stroke-width="2" d="M18.83 32.9a13.4 13.4 0 0 1-13.3-13.5 13.4 13.4 0 0 1 13.3-13.5c6.56 0 12.02 4.84 13.1 11.2m-6.68 11.54a4.74 4.74 0 1 0 4.74-4.74"/><path fill="currentColor" d="M29.3 29.22c.02 0 .03.02.04.03a.84.84 0 0 0 1.5-.52.85.85 0 0 0-.28-.62l-.07-.07-3.75-2.6 2.56 3.78z"/></g></symbol><symbol viewBox="0 0 40 40" id="ys-icon-set-recently-added" xmlns="http://www.w3.org/2000/svg"><g fill="none" fill-rule="evenodd"><path stroke="currentColor" stroke-linecap="round" stroke-width="2" d="M14.65 19.938h8.775m-4.387-4.313v8.625m.078 8.925c-7.157 0-12.96-5.894-12.96-13.162 0-7.269 5.803-13.163 12.96-13.163 6.403 0 11.722 4.717 12.771 10.916M25.375 29.02a4.621 4.621 0 1 0 4.622-4.62"/><path fill="currentColor" d="M29.332 29.582l.038.035a.81.81 0 0 0 .636.311.823.823 0 0 0 .822-.821.824.824 0 0 0-.272-.606c-.02-.02-.04-.046-.072-.07l-3.651-2.525 2.5 3.676z"/></g></symbol><symbol viewBox="0 0 40 40" id="ys-icon-set-record" xmlns="http://www.w3.org/2000/svg"><g fill="none" fill-rule="evenodd"><path stroke="currentColor" stroke-width="2" d="M19.95 4a15.95 15.95 0 1 1 0 31.9 15.95 15.95 0 0 1 0-31.9z"/><path fill="currentColor" d="M20 14a6 6 0 1 1 0 12 6 6 0 0 1 0-12"/></g></symbol><symbol viewBox="0 0 40 40" id="ys-icon-set-record2" xmlns="http://www.w3.org/2000/svg"><circle cx="20" cy="20" r="10" fill="currentColor" fill-rule="nonzero"/></symbol><symbol viewBox="0 0 40 40" id="ys-icon-set-remove" xmlns="http://www.w3.org/2000/svg"><path fill="none" stroke="currentColor" stroke-linecap="round" stroke-width="2" d="M10 20.3h21"/></symbol><symbol viewBox="0 0 40 40" id="ys-icon-set-rental-lock" xmlns="http://www.w3.org/2000/svg"><g fill="none" fill-rule="evenodd"><circle cx="25" cy="30" r="2" stroke="currentColor" stroke-width="2"/><circle cx="14" cy="30" r="2" stroke="currentColor" stroke-width="2"/><path stroke="currentColor" stroke-linecap="round" stroke-width="2" d="M21 13H9v9.104a2 2 0 0 0 2 2h17.842a2 2 0 0 0 1.86-1.268"/><path stroke="currentColor" stroke-linecap="round" stroke-width="2" d="M9.016 13.063V8.469L5.111 7.345"/><g transform="translate(25 4)"><rect width="12" height="9.571" y="5.429" fill="currentColor" rx="1.144"/><path stroke="currentColor" stroke-linecap="square" stroke-width="2" d="M9.136 3.58C9.136 1.9 7.732.536 6 .536c-1.732 0-3.136 1.363-3.136 3.044v3.067h6.271l.001-3.067z"/></g></g></symbol><symbol viewBox="0 0 40 40" id="ys-icon-set-repeat" xmlns="http://www.w3.org/2000/svg"><g fill="none" fill-rule="evenodd"><path stroke="currentColor" stroke-linecap="round" stroke-linejoin="round" stroke-width="2" d="M20.75 13.44H12.7a8.24 8.24 0 0 0-8.11 8.36 8.24 8.24 0 0 0 8.1 8.36h15.27c4.48 0 8.1-3.74 8.1-8.36a8.24 8.24 0 0 0-8.1-8.36"/><path fill="currentColor" d="M23.2 13.83l-3.97 2.34a.58.58 0 0 1-.87-.5V11a.58.58 0 0 1 .87-.5l3.96 2.34a.58.58 0 0 1 0 1z"/></g></symbol><symbol viewBox="0 0 40 40" id="ys-icon-set-restart-box" xmlns="http://www.w3.org/2000/svg"><g fill="none" fill-rule="evenodd" stroke="currentColor" stroke-linecap="round" stroke-width="2"><path d="M22.49 12.526l-2.665-4.06a1 1 0 0 1 .377-1.437l4.366-2.255"/><path d="M12.777 10.363c-3.866 2.418-6.435 6.705-6.435 11.59 0 7.551 6.14 13.673 13.714 13.673 6.686 0 12.254-4.77 13.469-11.082.161-.839.245-1.705.245-2.591 0-7.074-5.388-12.894-12.297-13.6"/></g></symbol><symbol viewBox="0 0 40 40" id="ys-icon-set-rewind" xmlns="http://www.w3.org/2000/svg"><g fill="none" fill-rule="evenodd"><path fill="currentColor" d="M19.507 18.995l6.467-3.723a.935.935 0 0 1 1.402.81v8.152a.935.935 0 0 1-1.402.81l-6.467-3.723v2.913a.935.935 0 0 1-1.402.81l-7.079-4.075a.935.935 0 0 1 0-1.621l7.08-4.076a.935.935 0 0 1 1.401.81v2.913z"/><circle cx="20" cy="20" r="16" stroke="currentColor" stroke-linecap="square" stroke-width="2"/></g></symbol><symbol viewBox="0 0 40 40" id="ys-icon-set-rewind2" xmlns="http://www.w3.org/2000/svg"><path fill="none" stroke="currentColor" stroke-width="2" d="M1.91 18.25l14.72-8.08a2 2 0 0 1 2.96 1.75v16.17a2 2 0 0 1-2.96 1.75L1.9 21.76a2 2 0 0 1 0-3.5zM21 18.4l15-8.23a2 2 0 0 1 2.96 1.75v16.17A2 2 0 0 1 36 29.84l-14.87-8.17a2 2 0 0 1-1.03-1.63c-.04-.68.31-1.31.9-1.64z"/></symbol><symbol viewBox="0 0 40 40" id="ys-icon-set-router" xmlns="http://www.w3.org/2000/svg"><g fill="none" fill-rule="evenodd" stroke="currentColor" stroke-width="2"><path d="M4 24h32a2 2 0 0 1 2 2v10.28a2 2 0 0 1-2 2H4a2 2 0 0 1-2-2V26c0-1.1.9-2 2-2z"/><path stroke-linecap="round" stroke-linejoin="round" d="M20 24V10m-6-4a6.93 6.93 0 0 0-2 5c0 2.03.78 3.83 2 5M26 6a6.93 6.93 0 0 1 2 5c0 2.03-.78 3.83-2 5M11 2c-2.44 2-4 5.06-4 8.5 0 3.44 1.56 6.5 4 8.5M30 2c2.44 2 4 5.06 4 8.5 0 3.44-1.56 6.5-4 8.5M7 29h3.9m3.33 0h3.9"/></g></symbol><symbol viewBox="0 0 40 40" id="ys-icon-set-screen-size" xmlns="http://www.w3.org/2000/svg"><g fill="none" fill-rule="evenodd" stroke="currentColor"><path stroke-linecap="round" stroke-linejoin="round" stroke-width="2" d="M13.246 30.754H27.41"/><rect width="33.639" height="19.475" x="3.508" y="7.738" stroke-width="2" rx="1.767"/><path d="M6.164 21.016v3.541m3.541 0H6.164m3.541-3.541l-2.656 2.656M6.164 13.934v-3.54m3.541-.001H6.164m3.541 3.541L7.049 11.28M34.492 21.016v3.541m-3.542 0h3.542m-3.542-3.541l2.657 2.656M34.492 13.934v-3.54m-3.542-.001h3.542m-3.542 3.541l2.657-2.655" stroke-linecap="round" stroke-linejoin="round" stroke-width="1.237"/></g></symbol><symbol viewBox="0 0 40 40" id="ys-icon-set-search" xmlns="http://www.w3.org/2000/svg"><g fill="none" fill-rule="evenodd" stroke="currentColor" stroke-width="2"><circle cx="18.6" cy="17.6" r="11.6"/><path stroke-linecap="round" d="M27 26.22l6.56 6.56"/></g></symbol><symbol viewBox="0 0 40 40" id="ys-icon-set-security" xmlns="http://www.w3.org/2000/svg"><g fill="none" fill-rule="evenodd"><rect width="27.73" height="22.63" x="6.27" y="15.35" stroke="currentColor" stroke-width="2" rx="2"/><path fill="currentColor" d="M20 35.17a1.72 1.72 0 1 1 0-3.45 1.72 1.72 0 0 1 0 3.45"/><path stroke="currentColor" stroke-linecap="round" stroke-linejoin="round" stroke-width="1.7" d="M12.76 27.59A9.39 9.39 0 0 1 20 24.14c2.9 0 5.5 1.33 7.24 3.44M10 24.14A13.96 13.96 0 0 1 20 20c3.95 0 7.5 1.6 10 4.14m-6.2 6.2a5.21 5.21 0 0 0-4.14-2.06c-1.68 0-3.17.8-4.14 2.06"/><path stroke="currentColor" stroke-width="2" d="M11 15.35V10.5C11 5.8 15.03 2 20 2s9 3.8 9 8.5v4.75"/></g></symbol><symbol viewBox="0 0 40 40" id="ys-icon-set-series" xmlns="http://www.w3.org/2000/svg"><g fill="none" fill-rule="evenodd"><path stroke="currentColor" stroke-linecap="square" stroke-width="2" d="M4.96 13.7H31.4c1 0 1.8.8 1.8 1.8v15.27c0 1-.8 1.8-1.8 1.8H4.96c-1 0-1.8-.8-1.8-1.8V15.5c0-1 .8-1.8 1.8-1.8zm2.75-.26V10.1c0-1 .8-1.81 1.8-1.81H35.9c1 0 1.8.8 1.8 1.8v14.15c0 1-.8 1.8-1.8 1.8h-2.63"/><path fill="currentColor" d="M15.75 19.46l6.48 3.2a.52.52 0 0 1 0 .95l-6.48 3.2a.52.52 0 0 1-.76-.47v-6.4a.52.52 0 0 1 .76-.48z"/></g></symbol><symbol viewBox="0 0 40 40" id="ys-icon-set-series-records" xmlns="http://www.w3.org/2000/svg"><g fill="none" fill-rule="evenodd"><path stroke="currentColor" stroke-dasharray="2 4" stroke-linecap="round" stroke-width="2" d="M20.3 11.827c4.3-3.811 10.94-3.788 15.215.187a10.806 10.806 0 0 1 .408 15.5 11.314 11.314 0 0 1-8.095 3.414 11.248 11.248 0 0 1-7.536-2.875"/><path stroke="currentColor" stroke-width="2" d="M12.225 9c6.135 0 11.107 4.908 11.107 10.964S18.36 30.928 12.225 30.928c-6.134 0-11.108-4.908-11.108-10.964S6.09 9 12.225 9z"/><path fill="currentColor" d="M12.225 15.925c2.26 0 4.092 1.808 4.092 4.04 0 2.23-1.833 4.038-4.092 4.038-2.26 0-4.093-1.808-4.093-4.039 0-2.23 1.833-4.04 4.093-4.04"/></g></symbol><symbol viewBox="0 0 40 40" id="ys-icon-set-settings" xmlns="http://www.w3.org/2000/svg"><g fill="none" fill-rule="evenodd" stroke="currentColor" stroke-width="2"><path d="M19.5 15.5c-2.201 0-4 1.799-4 4s1.799 4 4 4 4-1.799 4-4-1.799-4-4-4z"/><path d="M34.813 17.084l-.05-.004c-.246-.03-.5-.052-.925-.085l-.524-.042a9.498 9.498 0 0 1-.467-.045c-.325 0-.613-.12-.838-.323a1.49 1.49 0 0 1-.28-.336l-.08-.122-.044-.141a11.683 11.683 0 0 0-.874-2.126c-.325-.489-.246-1.042.036-1.466l.08-.104c.46-.525.88-1.015 1.3-1.512a1.09 1.09 0 0 0-.084-1.479L30 7.201a1.08 1.08 0 0 0-1.465-.086l-.74.62c-.293.247-.53.456-.757.667l-.127.1c-.401.268-.875.341-1.376.09a13.137 13.137 0 0 0-2.241-.935c-.508-.17-.898-.646-.897-1.187a27.47 27.47 0 0 0-.174-1.98 1.088 1.088 0 0 0-1.073-.99h-2.996a1.076 1.076 0 0 0-1.075 1.007c-.029.246-.052.5-.085.925l-.042.523a9.498 9.498 0 0 1-.045.468c0 .325-.12.613-.323.838-.11.121-.184.178-.336.279l-.122.082-.141.043c-.78.237-1.498.535-2.126.873-.489.326-1.042.247-1.466-.035l-.128-.101c-.226-.211-.463-.42-.756-.667l-.732-.613a1.088 1.088 0 0 0-1.473.08L7.201 9.304a1.079 1.079 0 0 0-.086 1.464l.62.74c.248.294.456.531.667.757l.1.128c.268.4.341.874.09 1.375-.39.747-.71 1.503-.935 2.242-.17.507-.646.897-1.187.896a27.47 27.47 0 0 0-1.98.175c-.564.056-.99.522-.99 1.073v2.995c0 .561.43 1.036 1.007 1.076.246.029.5.051.925.085l.524.041c.207.017.386.033.467.045.325 0 .613.121.838.324.122.109.178.184.28.335l.08.123.044.141c.237.78.536 1.498.874 2.126.326.488.246 1.042-.036 1.466l-.08.103c-.46.526-.88 1.015-1.3 1.512A1.088 1.088 0 0 0 7.2 30l2.104 2.104c.413.413 1.017.44 1.464.087l.74-.62c.294-.248.531-.456.757-.667l.128-.101c.4-.268.874-.34 1.375-.09.747.392 1.504.71 2.242.936.507.17.898.646.896 1.186.03.622.084 1.204.175 1.981.056.563.522.99 1.073.99h2.996a1.076 1.076 0 0 0 1.075-1.007c.029-.247.052-.5.085-.925l.042-.524c.016-.207.032-.386.044-.467 0-.325.121-.613.324-.839.109-.12.184-.177.335-.279l.123-.081.141-.043c.78-.237 1.498-.536 2.126-.874.489-.326 1.042-.247 1.466.036l.127.1c.226.212.464.42.757.668l.731.612c.434.359 1.064.331 1.474-.079L32.105 30a1.08 1.08 0 0 0 .086-1.464l-.62-.74c-.248-.293-.456-.53-.667-.757l-.101-.127c-.267-.401-.34-.875-.09-1.376.392-.747.711-1.503.936-2.241.17-.508.646-.898 1.186-.897.622-.03 1.204-.083 1.981-.174.563-.057.99-.522.99-1.074v-2.962c-.02-.584-.463-1.068-.993-1.104z"/></g></symbol><symbol viewBox="0 0 40 40" id="ys-icon-set-share" xmlns="http://www.w3.org/2000/svg"><g fill="none" fill-rule="evenodd" stroke="currentColor" stroke-width="2"><circle cx="10.71" cy="20.06" r="3.5" stroke-linecap="square"/><circle cx="28.71" cy="10.06" r="3.5" stroke-linecap="square"/><circle cx="28.71" cy="29.21" r="3.5" stroke-linecap="square"/><path d="M13.32 18.8l12.46-6.7M13.2 21.3l12.33 6.95"/></g></symbol><symbol viewBox="0 0 40 40" id="ys-icon-set-shuffle" xmlns="http://www.w3.org/2000/svg"><g fill="none" fill-rule="evenodd"><path fill="currentColor" d="M35.26 13.35l-4.18 2.46a.61.61 0 0 1-.92-.52v-4.92a.61.61 0 0 1 .92-.53l4.18 2.46a.61.61 0 0 1 0 1.05zm0 13.77l-4.18 2.46a.61.61 0 0 1-.92-.52v-4.92a.61.61 0 0 1 .92-.53l4.18 2.46a.61.61 0 0 1 0 1.05z"/><path stroke="currentColor" stroke-linecap="round" stroke-width="2" d="M3.93 27.17h5.04c1.12 0 3.98-.37 6.24-3.22M3.93 12.56h5.04c1.12 0 4.61.37 6.55 3.36 1.94 2.99 3.78 7.11 5.64 8.47 1.86 1.35 2.93 2.04 6.35 2.04h3.21m.04-13.87h-5.03c-1.13 0-3.98.38-6.25 3.22"/></g></symbol><symbol viewBox="0 0 40 40" id="ys-icon-set-simcard" xmlns="http://www.w3.org/2000/svg"><g fill="none" fill-rule="evenodd" stroke="currentColor" stroke-width="2"><path d="M11 4h9.2c.5 0 1 .2 1.4.6l8.8 8.8c.4.4.6.9.6 1.4V34a2 2 0 0 1-2 2H11a2 2 0 0 1-2-2V6c0-1.1.9-2 2-2z"/><rect width="14" height="14" x="13" y="18" rx="2"/><path stroke-linecap="square" d="M21.5 32v-8m.5 4h5m-13-4h13"/></g></symbol><symbol viewBox="0 0 40 40" id="ys-icon-set-smart-home" xmlns="http://www.w3.org/2000/svg"><g fill="none" fill-rule="evenodd" stroke="currentColor" stroke-width="2"><path stroke-linecap="square" d="M33 15v19a2 2 0 0 1-2 2H9a2 2 0 0 1-2-2V15"/><path stroke-linecap="round" d="M1.45 17.47L18.88 5.75a2 2 0 0 1 2.24 0l17.31 11.72M17 18.09a5.58 5.58 0 0 0 3 10.31 5.6 5.6 0 0 0 3-10.3m-3 3.5v-6"/></g></symbol><symbol viewBox="0 0 40 40" id="ys-icon-set-sms" xmlns="http://www.w3.org/2000/svg"><g fill="none" fill-rule="evenodd"><path stroke="currentColor" stroke-linecap="round" stroke-linejoin="round" stroke-width="2" d="M25.13 5.67c-6.62 0-12 3.97-12 8.87 0 5.82 6.63 9.33 13.25 9.33l5.36 4 .71-6a7.57 7.57 0 0 0 4.68-7.33c0-4.9-5.37-8.87-12-8.87M9.5 16.5c-4 .5-7.66 3.31-7.66 7.37 0 2.82 1.56 5.23 4.79 6.64l-1.02 3.95 4.4-2.53c7.4 1.29 11.87-1.53 12.99-4.43"/><path fill="currentColor" d="M21.51 15.03c0 .76-.63 1.37-1.4 1.37-.78 0-1.4-.61-1.4-1.37 0-.75.62-1.36 1.4-1.36.77 0 1.4.6 1.4 1.36m4.79 0c0 .76-.62 1.37-1.4 1.37-.77 0-1.4-.61-1.4-1.37 0-.75.63-1.36 1.4-1.36.78 0 1.4.6 1.4 1.36m4.9 0c0 .76-.62 1.37-1.4 1.37-.78 0-1.4-.61-1.4-1.37 0-.75.62-1.36 1.4-1.36.78 0 1.4.6 1.4 1.36"/></g></symbol><symbol viewBox="0 0 40 40" id="ys-icon-set-song-radio" xmlns="http://www.w3.org/2000/svg"><g fill="none" fill-rule="evenodd"><path stroke="currentColor" stroke-linecap="round" stroke-width="2.02" d="M25.01 33H8a2 2 0 0 1-2-2V18c0-1.1.9-2 2-2h21a2 2 0 0 1 2 2v2.96"/><path fill="currentColor" d="M26.5 22a1.5 1.5 0 1 0 0-3 1.5 1.5 0 0 0 0 3"/><path stroke="currentColor" stroke-linecap="round" stroke-width="1.01" d="M9.5 20.5h12"/><path stroke="currentColor" stroke-linecap="round" stroke-width="2.02" d="M12 8l16 8"/><path stroke="currentColor" stroke-linecap="round" stroke-width="1.21" d="M31.83 34.32v-9.54c0-.27.18-.5.44-.55l2.38 1.36"/><ellipse cx="29.91" cy="34.6" stroke="currentColor" stroke-width="1.21" rx="1.91" ry="1.39"/></g></symbol><symbol viewBox="0 0 40 40" id="ys-icon-set-songs" xmlns="http://www.w3.org/2000/svg"><g fill="none" fill-rule="evenodd" stroke="currentColor" stroke-width="2"><path stroke-linecap="round" d="M20.75 30.23V8.75c0-.6.42-1.1 1-1.23l5.45 3.05"/><ellipse cx="16.38" cy="30.85" rx="4.38" ry="3.13"/></g></symbol><symbol viewBox="0 0 40 40" id="ys-icon-set-sort-channels" xmlns="http://www.w3.org/2000/svg"><g fill="none" fill-rule="evenodd"><path stroke="currentColor" stroke-linecap="round" stroke-width="2" d="M15 19.844h18m-18 8.5h18m-18-17h18"/><path fill="currentColor" d="M7.02 12.582V10.29a2.42 2.42 0 0 1-.894.222L6 9.846c.438-.114.93-.408 1.23-.762h.78v3.498h.75v.762H6.174v-.762h.846zm-.9 9.082v-.6l1.392-1.638c.282-.33.396-.51.396-.762 0-.288-.198-.462-.492-.462-.306 0-.756.234-1.038.462L6 18.034c.384-.366.972-.69 1.596-.69.678 0 1.302.39 1.302 1.188 0 .486-.186.804-.546 1.236l-.906 1.086H8.97v.81H6.12zM6 29.9l.39-.624c.306.228.63.372 1.002.372.36 0 .648-.144.648-.498 0-.33-.21-.516-.678-.522-.12 0-.324.012-.408.03l-.018-.78c.492-.012.924-.228.924-.594 0-.282-.198-.384-.48-.384-.312 0-.6.114-.846.252l-.366-.612c.414-.288.828-.456 1.398-.456.732 0 1.242.384 1.242 1.044 0 .45-.3.846-.792 1.02v.018c.618.06.96.426.96 1.026 0 .87-.672 1.29-1.506 1.29-.522 0-1.074-.18-1.47-.582z"/></g></symbol><symbol viewBox="0 0 40 40" id="ys-icon-set-sorting" xmlns="http://www.w3.org/2000/svg"><path d="M6 8h17.4m6.2 0v22M6 15.4h14.4M6 22.7h11.5M6 30h8.5m19.5-.7l-4.4 3-4.4-3" fill="none" fill-rule="evenodd" stroke="currentColor" stroke-linecap="round" stroke-linejoin="round" stroke-width="2"/></symbol><symbol viewBox="0 0 40 40" id="ys-icon-set-speedtest" xmlns="http://www.w3.org/2000/svg"><g fill="none" fill-rule="evenodd"><path fill="currentColor" fill-rule="nonzero" d="M22.5 21.24a2.5 2.5 0 1 1-5 0 2.5 2.5 0 0 1 5 0"/><path stroke="currentColor" stroke-linecap="round" stroke-linejoin="round" stroke-width="2" d="M25.63 15.62l-4.74 4.73"/><path stroke="currentColor" stroke-width="2" d="M20 7.49a13.75 13.75 0 1 0 0 27.5 13.75 13.75 0 0 0 0-27.5"/><path stroke="currentColor" stroke-linecap="round" stroke-linejoin="round" stroke-width="2" d="M20 1.87v5m2.5-5.63h-5m15 7.5l-2.65 2.65M35 10l-3.53-3.54"/></g></symbol><symbol viewBox="0 0 40 40" id="ys-icon-set-start-over" xmlns="http://www.w3.org/2000/svg"><g fill="none" fill-rule="evenodd"><path fill="currentColor" d="M28.101 21.005l-8.952 5.011a1.152 1.152 0 0 1-1.715-1.005V14.989a1.152 1.152 0 0 1 1.715-1.005l8.952 5.01a1.152 1.152 0 0 1 0 2.011zm-21.821.866l-3.618-6.029a.502.502 0 0 1 .43-.76h7.237a.502.502 0 0 1 .43.76l-3.618 6.03a.502.502 0 0 1-.86 0z"/><path stroke="currentColor" stroke-linecap="round" stroke-width="2" d="M8.372 28.493C11.202 33.003 16.218 36 21.934 36c8.837 0 16-7.163 16-16 0-7.8-5.58-14.296-12.968-15.713A16.084 16.084 0 0 0 21.934 4C13.656 4 6.846 10.287 6.02 18.347"/></g></symbol><symbol viewBox="0 0 40 40" id="ys-icon-set-stop" xmlns="http://www.w3.org/2000/svg"><g fill="none" fill-rule="evenodd"><circle cx="20" cy="20" r="16" stroke="currentColor" stroke-linecap="square" stroke-width="2"/><rect width="12" height="12" x="14" y="14" fill="currentColor" rx=".632"/></g></symbol><symbol viewBox="0 0 40 40" id="ys-icon-set-stop2" xmlns="http://www.w3.org/2000/svg"><path fill="none" stroke="currentColor" stroke-width="2" d="M12 30h16a2 2 0 0 0 2-2V12a2 2 0 0 0-2-2H12a2 2 0 0 0-2 2v16a2 2 0 0 0 2 2z"/></symbol><symbol viewBox="0 0 40 40" id="ys-icon-set-streaming" xmlns="http://www.w3.org/2000/svg"><g fill="none" fill-rule="evenodd"><path stroke="currentColor" stroke-linecap="round" stroke-linejoin="round" stroke-width="2" d="M37.1 21.97c1 4.48-2.37 9.77-7.94 9.43H9.85C5.6 31.5 2 28.09 2 24.09c0-6 4.45-7.43 6-8 1-6 6.3-8.09 9-8.09.6 0 2 0 2.03.06"/><ellipse cx="30.17" cy="13.04" stroke="currentColor" stroke-width="2" rx="8.17" ry="8.04"/><path fill="currentColor" d="M33.53 13.7l-4.87 2.86a.44.44 0 0 1-.66-.37v-5.74a.44.44 0 0 1 .66-.37l4.87 2.86a.44.44 0 0 1 0 .76z"/></g></symbol><symbol viewBox="0 0 40 40" id="ys-icon-set-subtitles" xmlns="http://www.w3.org/2000/svg"><g fill="none" fill-rule="evenodd" stroke="currentColor" stroke-width="2"><path stroke-linecap="round" stroke-linejoin="round" d="M12.2 31.36h14.9"/><rect width="35.38" height="20.43" x="1.97" y="7.21" rx="1.87"/><path stroke-linecap="round" d="M5.7 23.93h18.6M5.7 20.21h27.92"/></g></symbol><symbol viewBox="0 0 40 40" id="ys-icon-set-subtitles-dk" xmlns="http://www.w3.org/2000/svg"><g fill="none" fill-rule="evenodd"><path stroke="currentColor" stroke-linecap="round" stroke-linejoin="round" stroke-width="2" d="M12.86 31.36h14.9"/><rect width="35.38" height="20.43" x="2.62" y="7.21" stroke="currentColor" stroke-width="2" rx="1.87"/><path stroke="currentColor" stroke-linecap="round" stroke-width="2" d="M6.35 20.21h18.62M6.35 23.93h27.93"/><path fill="currentColor" d="M29.22 18.3h-.47v2.28h.47c.67 0 .98-.38.98-1.15 0-.74-.31-1.13-.98-1.13zm-1.46-.87h1.46c1.34 0 2.01.79 2.01 1.94 0 1.44-.7 2.07-2.16 2.07h-1.3v-4.01zm3.98 4v-4h1v1.59h.42l.85-1.6h1.1l-1.11 2 1.21 2.03h-1.14l-.93-1.62h-.42v1.62h-.99z"/></g></symbol><symbol viewBox="0 0 40 40" id="ys-icon-set-supports" xmlns="http://www.w3.org/2000/svg"><g fill="none" fill-rule="evenodd"><path stroke="currentColor" stroke-linecap="round" stroke-linejoin="bevel" stroke-width="2" d="M28.223 4c6.187 2.95 9.037 9.394 7.1 15.41-.639 1.98-3.119 6.423-3.551 6.632 0 0 1.972 7.869 1.907 7.906-2.95 1.66-14.909 4.414-16.021 4.414-.507 0-1.457-3.517-1.822-4.333-.695-.925-5.843.794-7.537-1.273-1.224-1.493 0-5.273-.436-5.964-.568-.9-2.863-1.08-2.863-2.164 0-1.945 2.942-4.126 2.829-6.307-.396-7.589 4.982-13.707 8.007-14.114"/><circle cx="23.25" cy="16.25" r="4.25" stroke="currentColor" stroke-width="2"/><path stroke="currentColor" stroke-linecap="round" stroke-linejoin="round" stroke-width="2" d="M23 11.5l-1-9"/><path stroke="currentColor" stroke-width="2" d="M23.02 21c-.409 1.378-1.338 2.62-2.34 3.646-1.003 1.027-2.316 1.877-3.68 2.516"/><circle cx="16.5" cy="25.5" r="2.5" fill="currentColor"/></g></symbol><symbol viewBox="0 0 40 40" id="ys-icon-set-tablet" xmlns="http://www.w3.org/2000/svg"><g fill="none" fill-rule="evenodd" transform="rotate(-90 18.5 15)"><rect width="26" height="34" stroke="currentColor" stroke-width="2" rx="2.02"/><ellipse cx="13.05" cy="29" fill="currentColor" rx="2.05" ry="2"/></g></symbol><symbol viewBox="0 0 40 40" id="ys-icon-set-text-tv" xmlns="http://www.w3.org/2000/svg"><g fill="none" fill-rule="evenodd" stroke="currentColor" stroke-width="2"><path stroke-linecap="round" stroke-linejoin="round" d="M13.006 31.478H27.65"/><rect width="34.78" height="20.429" x="2.938" y="7.335" rx="1.834"/><path stroke-linecap="round" d="M8.43 22.192h23.796M8.43 17.55h23.796M8.43 12.906h23.796"/></g></symbol><symbol viewBox="0 0 40 40" id="ys-icon-set-tips" xmlns="http://www.w3.org/2000/svg"><g fill="none" fill-rule="evenodd"><path fill="currentColor" d="M22 38h-4a1 1 0 0 0 0 2h4a1 1 0 0 0 0-2zm1-3.5h-6a1 1 0 0 0 0 2h6a1 1 0 0 0 0-2zM10.3 6.83L8.16 4.7a1 1 0 1 0-1.41 1.41l2.12 2.12a1 1 0 0 0 1.41-1.41zm22.97 22.52l-2.12-2.12a1 1 0 0 0-1.41 1.41l2.11 2.13a1 1 0 0 0 1.41-1.41zM32.83 4.7L30.7 6.84a1 1 0 0 0 1.41 1.41l2.12-2.12a1 1 0 1 0-1.41-1.41zM8.85 27.23l-2.12 2.12a1 1 0 0 0 1.41 1.41l2.13-2.11a1 1 0 0 0-1.41-1.41zM6 16H3a1 1 0 0 0 0 2h3a1 1 0 0 0 0-2zm31 0h-3a1 1 0 0 0 0 2h3a1 1 0 0 0 0-2zM21 4V1a1 1 0 0 0-2 0v3a1 1 0 0 0 2 0z"/><path stroke="currentColor" stroke-width="2" d="M24 30.08c0-5.76 6-7.68 6-13.44S25 8 20 8s-10 2.88-10 8.64c0 5.76 6 7.68 6 13.44A1.92 1.92 0 0 0 17.92 32h4.15c1.06 0 1.92-.86 1.93-1.92z"/></g></symbol><symbol viewBox="0 0 40 40" id="ys-icon-set-trailer" xmlns="http://www.w3.org/2000/svg"><g fill="none" fill-rule="evenodd" stroke="currentColor" stroke-linecap="square" stroke-width="2"><rect width="28" height="25" x="6" y="8" rx="1.87"/><path d="M13.47 32.07V8.93m13.06 23.14V8.93M6.93 15.4h6.09m-6.09 5.56h6.09m-6.09 5.56h6.09M26.53 15.4h6.09m-6.09 5.56h6.09m-6.09 5.56h6.09m-17.76-5.56h10.28"/></g></symbol><symbol viewBox="0 0 40 40" id="ys-icon-set-tv" xmlns="http://www.w3.org/2000/svg"><g fill="none" fill-rule="evenodd" stroke="currentColor" stroke-width="2"><path stroke-linecap="round" stroke-linejoin="round" d="M12 33h16"/><rect width="38" height="22" x="1" y="7" rx="2"/></g></symbol><symbol viewBox="0 0 40 40" id="ys-icon-set-tv-film" xmlns="http://www.w3.org/2000/svg"><g fill="none" fill-rule="evenodd"><rect width="32" height="20" x="4" y="9" stroke="currentColor" stroke-linecap="round" stroke-width="2" rx="1"/><path stroke="currentColor" stroke-linecap="round" stroke-linejoin="round" stroke-width="2" d="M14 33h12"/><path fill="currentColor" d="M24 20l-7 3a1 1 0 0 1-1-1v-6a1 1 0 0 1 1-1l7 3a1 1 0 0 1 0 2z"/></g></symbol><symbol viewBox="0 0 40 40" id="ys-icon-set-tv-guide" xmlns="http://www.w3.org/2000/svg"><path d="M18.78 32.578L6.906 30.494a2.008 2.008 0 0 1-1.66-1.978V10.154A2.008 2.008 0 0 1 7.6 8.177l5.863 1.029 6.494 1.14V31.59a1.004 1.004 0 0 1-1.177.989zm2.355 0l11.874-2.084a2.008 2.008 0 0 0 1.66-1.978V10.154a2.008 2.008 0 0 0-2.355-1.977l-5.862 1.029-6.495 1.14V31.59a1.004 1.004 0 0 0 1.178.989z" fill="none" fill-rule="evenodd" stroke="currentColor" stroke-width="2"/></symbol><symbol viewBox="0 0 40 40" id="ys-icon-set-unlock" xmlns="http://www.w3.org/2000/svg"><g fill="none" fill-rule="evenodd"><rect width="22" height="16" x="9" y="18" stroke="currentColor" stroke-linecap="square" stroke-width="2" rx="2.018"/><path fill="currentColor" fill-rule="nonzero" d="M19 25.73c-.604-.343-1-.981-1-1.73 0-1.125.894-2 2.044-2s2.045.938 2.045 2A1.97 1.97 0 0 1 21 25.777V29a1 1 0 0 1-2 0v-3.27z"/><path stroke="currentColor" stroke-linecap="round" stroke-width="2" d="M24.793 8.898A7 7 0 0 0 13 14v2.921"/></g></symbol><symbol viewBox="0 0 40 40" id="ys-icon-set-update" xmlns="http://www.w3.org/2000/svg"><g fill="none" fill-rule="evenodd" stroke="currentColor" stroke-linecap="round" stroke-width="2"><path d="M29.81 13.19a12 12 0 0 0-21.46 8.58m2.42 5.8a12 12 0 0 0 21.46-8.59"/><path d="M4.28 19.28L7.5 22.9a1 1 0 0 0 1.49.01l3.3-3.63m15.99 1.96l3.23-3.63a1 1 0 0 1 1.49 0l3.3 3.63"/></g></symbol><symbol viewBox="0 0 40 40" id="ys-icon-set-upload" xmlns="http://www.w3.org/2000/svg"><g fill="none" fill-rule="evenodd" stroke="currentColor" stroke-linecap="round" stroke-width="2"><path d="M25.2 13h4.33A3.38 3.38 0 0 1 33 16.29V32.7a3.38 3.38 0 0 1-3.47 3.3H10.47A3.38 3.38 0 0 1 7 32.71V16.3a3.38 3.38 0 0 1 3.47-3.3h4.33"/><path stroke-linejoin="round" d="M20 4l5 4M15 8l5-4"/><path d="M20 4v18"/></g></symbol><symbol viewBox="0 0 40 40" id="ys-icon-set-video-guide" xmlns="http://www.w3.org/2000/svg"><g fill="none" fill-rule="evenodd"><circle cx="20" cy="20" r="16" stroke="currentColor" stroke-width="2"/><path fill="currentColor" d="M25.2 21l-7.7 4.5a1 1 0 0 1-1.5-.9v-8.8a1 1 0 0 1 1.5-.8l7.7 4.4a1 1 0 0 1 0 1.7z"/></g></symbol><symbol viewBox="0 0 40 40" id="ys-icon-set-voice" xmlns="http://www.w3.org/2000/svg"><g fill="none" fill-rule="evenodd" stroke="currentColor" stroke-width="2"><path d="M24.498 29.542l-2.391-2.388a1.676 1.676 0 0 0-2.39 0l-1.914 1.91c-2.773-1.337-5.547-4.107-6.79-6.876l1.817-1.91c.67-.67.67-1.72 0-2.293L10.44 15.5a1.676 1.676 0 0 0-2.392 0l-2.39 2.484C1.545 22.092 17.899 38.52 22.107 34.318l2.39-2.388a1.67 1.67 0 0 0 0-2.388z"/><path stroke-linecap="round" stroke-linejoin="round" d="M34.459 12.228c0 4.091-4.39 5.939-9.507 5.939L19.737 20.4v-4c-1-1-2.737-1.965-2.737-4.173C17 8.788 20.909 6 25.73 6c4.82 0 8.729 2.788 8.729 6.228z"/></g></symbol><symbol viewBox="0 0 40 40" id="ys-icon-set-volume-1" xmlns="http://www.w3.org/2000/svg"><g fill="none" fill-rule="evenodd" stroke="currentColor" stroke-width="2"><path d="M5.31 12.85H8.7c.31 0 .62-.11.85-.32l6.54-5.63a1.31 1.31 0 0 1 2.17 1v24.27a1.31 1.31 0 0 1-2.17 1L9.5 27.5c-.24-.2-.54-.32-.85-.32H5.3c-.72 0-1.31-.59-1.31-1.31v-11.7c0-.73.59-1.32 1.31-1.32z"/><path stroke-linecap="round" d="M25 15a6.72 6.72 0 0 1 2 5c0 2.02-.67 3.69-2 5"/></g></symbol><symbol viewBox="0 0 40 40" id="ys-icon-set-volume-2" xmlns="http://www.w3.org/2000/svg"><g fill="none" fill-rule="evenodd" stroke="currentColor" stroke-width="2"><path d="M5.31 12.85H8.7c.31 0 .62-.11.85-.32l6.54-5.63a1.31 1.31 0 0 1 2.17 1v24.27a1.31 1.31 0 0 1-2.17 1L9.5 27.5c-.24-.2-.54-.32-.85-.32H5.3c-.72 0-1.31-.59-1.31-1.31v-11.7c0-.73.59-1.32 1.31-1.32z"/><path stroke-linecap="round" d="M25 15a6.72 6.72 0 0 1 2 5c0 2.02-.67 3.69-2 5m2.86-13a10.07 10.07 0 0 1 3.66 7.98c0 3.22-1.22 5.88-3.66 7.98"/></g></symbol><symbol viewBox="0 0 40 40" id="ys-icon-set-volume-3" xmlns="http://www.w3.org/2000/svg"><g fill="none" fill-rule="evenodd" stroke="currentColor" stroke-width="2"><path d="M5.31 12.85H8.7c.31 0 .62-.11.85-.32l6.54-5.63a1.31 1.31 0 0 1 2.17 1v24.27a1.31 1.31 0 0 1-2.17 1L9.5 27.5c-.24-.2-.54-.32-.85-.32H5.3c-.72 0-1.31-.59-1.31-1.31v-11.7c0-.73.59-1.32 1.31-1.32z"/><path stroke-linecap="round" d="M25 15a6.72 6.72 0 0 1 2 5c0 2.02-.67 3.69-2 5m2.86-13a10.07 10.07 0 0 1 3.66 7.98c0 3.22-1.22 5.88-3.66 7.98"/><path stroke-linecap="round" d="M30.5 8.7a13.78 13.78 0 0 1 5.41 11.17c0 4.52-1.8 8.24-5.41 11.17"/></g></symbol><symbol viewBox="0 0 40 40" id="ys-icon-set-voucher" xmlns="http://www.w3.org/2000/svg"><g fill="none" fill-rule="evenodd" stroke="currentColor" stroke-width="2"><path d="M26.3 16a3 3 0 0 1-.6-1.3 3 3 0 0 1 2.3-3.6L27.5 9c-.3-1.3-1.5-2-2.8-1.8L5.2 11.5a2.3 2.3 0 0 0-1.8 2.8l.6 2.2c1.6-.4 3.3.6 3.7 2.2.2.8 0 1.5-.3 2.2a3 3 0 0 1-2 1.4l.5 2.3c.3 1.2 1.5 2 2.7 1.7L10 26"/><path d="M26.3 16l8.4 1.5a2 2 0 0 1 1.6 2.3l-.5 2.6c-1.7-.3-3.3.7-3.7 2.4a3 3 0 0 0 2.5 3.5l-.5 2.6a2 2 0 0 1-2.3 1.5l-20.3-3.7a2 2 0 0 1-1.6-2.3V26l.5-2.2c1.7.4 3.3-.7 3.6-2.3a3 3 0 0 0-2.5-3.6l.5-2.5a2 2 0 0 1 2.3-1.6l12 2.2z"/><path stroke-linecap="round" d="M16.8 24l11.8 2m-11-5.8l11.7 2"/></g></symbol><symbol viewBox="0 0 40 40" id="ys-icon-set-yousee-cloud" xmlns="http://www.w3.org/2000/svg"><g fill="none" fill-rule="evenodd"><path stroke="currentColor" stroke-linecap="round" stroke-linejoin="round" stroke-width="2" d="M29.16 31.4H9.85C5.6 31.5 2 28.09 2 24.09c0-6 4.45-7.43 6-8 1-6 6.3-8.09 9-8.09 7 0 9 6 9 8 16-1 13 16 3.16 15.4z"/><path fill="currentColor" d="M22.68 22.86l-5.2 2.95a.99.99 0 0 1-1.48-.86v-5.9a.99.99 0 0 1 1.48-.86l5.2 2.95a.99.99 0 0 1 0 1.72z"/></g></symbol><symbol viewBox="0 0 40 40" id="ys-icon-set-yousee-more" xmlns="http://www.w3.org/2000/svg"><g fill="none" fill-rule="evenodd" stroke="currentColor" stroke-width="2"><circle cx="20" cy="20" r="16"/><path stroke-linecap="round" d="M20 14v12m6-6H14"/></g></symbol></svg>