<svg xmlns="http://www.w3.org/2000/svg" xmlns:xlink="http://www.w3.org/1999/xlink"><symbol viewBox="0 -3 16 16" id="ys-ui-icons-arrow-down" xmlns="http://www.w3.org/2000/svg"><path fill="currentColor" fill-rule="evenodd" d="M7.973 7.299l6.077-5.982a1.11 1.11 0 0 1 1.553 0l.075.074a1.069 1.069 0 0 1 0 1.528L8.844 9.647a1.149 1.149 0 0 1-.06.065 1.133 1.133 0 0 1-1.603 0L.359 2.891a1.133 1.133 0 0 1 1.603-1.603l6.011 6.01z"/></symbol><symbol viewBox="-3 0 16 16" id="ys-ui-icons-arrow-left" xmlns="http://www.w3.org/2000/svg"><path fill="currentColor" fill-rule="evenodd" d="M2.745 8.027L8.728 1.95a1.11 1.11 0 0 0 0-1.553L8.653.322a1.069 1.069 0 0 0-1.528 0L.397 7.156a1.149 1.149 0 0 0-.065.06 1.133 1.133 0 0 0 0 1.603l6.822 6.822a1.133 1.133 0 0 0 1.602-1.603l-6.01-6.011z"/></symbol><symbol viewBox="-3 0 16 16" id="ys-ui-icons-arrow-right" xmlns="http://www.w3.org/2000/svg"><path fill="currentColor" fill-rule="evenodd" d="M6.343 8.027L.36 1.95a1.11 1.11 0 0 1 0-1.553L.435.322a1.069 1.069 0 0 1 1.528 0l6.728 6.834.065.06c.443.443.443 1.16 0 1.603l-6.821 6.822a1.133 1.133 0 0 1-1.603-1.603l6.01-6.011z"/></symbol><symbol viewBox="0 -3 16 16" id="ys-ui-icons-arrow-up" xmlns="http://www.w3.org/2000/svg"><path fill="currentColor" fill-rule="evenodd" d="M8.027 2.701L1.95 8.683a1.11 1.11 0 0 1-1.553 0L.322 8.61a1.069 1.069 0 0 1 0-1.528L7.156.353a1.149 1.149 0 0 1 .06-.065 1.133 1.133 0 0 1 1.603 0l6.822 6.821a1.133 1.133 0 0 1-1.603 1.603l-6.011-6.01z"/></symbol><symbol viewBox="-1 -2 16 16" id="ys-ui-icons-check-mark" xmlns="http://www.w3.org/2000/svg"><path fill="none" stroke="currentColor" stroke-linecap="round" stroke-linejoin="round" stroke-width="2" d="M1 6.165L5.68 11 13 1"/></symbol><symbol viewBox="0 0 24 24" id="ys-ui-icons-erase" xmlns="http://www.w3.org/2000/svg"><g fill="none" fill-rule="evenodd" stroke="currentColor" stroke-width="2"><rect width="22" height="22" x="1" y="1" rx="11"/><path d="M8 15.98L16.33 8m0 7.98L8 8" stroke-linecap="round" stroke-linejoin="round"/></g></symbol><symbol viewBox="-7 -1 16 16" id="ys-ui-icons-exclamation-mark" xmlns="http://www.w3.org/2000/svg"><path fill="currentColor" d="M1 0a1 1 0 0 1 1 1v7a1 1 0 0 1-2 0V1a1 1 0 0 1 1-1zm0 11a1 1 0 1 1 0 2 1 1 0 0 1 0-2z"/></symbol><symbol viewBox="0 0 24 24" id="ys-ui-icons-eye-closed" xmlns="http://www.w3.org/2000/svg"><g fill="currentColor" fill-rule="evenodd"><path fill-rule="nonzero" d="M6.41 6.276l1.194 1.653C5.752 8.743 3.99 10.096 2.312 12 5.27 15.355 8.487 17 12 17c.684 0 1.358-.062 2.02-.188l1.272 1.762A12.77 12.77 0 0 1 12 19C7.627 19 3.689 16.852.227 12.634a1 1 0 0 1 0-1.268c1.917-2.336 3.98-4.037 6.183-5.09zm1.93-.746A12.75 12.75 0 0 1 12 5c4.373 0 8.311 2.148 11.773 6.366a1 1 0 0 1 0 1.268c-2.014 2.454-4.189 4.207-6.516 5.244l-1.202-1.663c1.977-.795 3.852-2.195 5.633-4.215C18.73 8.645 15.513 7 12 7c-.818 0-1.62.09-2.406.268L8.339 5.53z"/><path d="M8.805 9.592l4.477 6.198a4 4 0 0 1-4.476-6.198zm1.567-1.247a4 4 0 0 1 4.585 6.349l-4.585-6.349z"/><path fill-rule="nonzero" d="M5.69 3.085a1 1 0 0 1 1.62-1.17l13 18a1 1 0 0 1-1.62 1.17l-13-18z"/></g></symbol><symbol viewBox="0 0 16 16" id="ys-ui-icons-eye-open" xmlns="http://www.w3.org/2000/svg"><g fill="none" fill-rule="evenodd"><path stroke="currentColor" stroke-width="1.33" d="M15.14 8C12.963 5.427 10.59 4.165 8 4.165S3.037 5.427.86 8c2.177 2.573 4.55 3.835 7.14 3.835S12.963 10.573 15.14 8z"/><path fill="currentColor" d="M8.736 5.61a1.25 1.25 0 1 0 1.654 1.654A2.5 2.5 0 1 1 8.736 5.61z"/></g></symbol><symbol viewBox="0 0 728 189" id="ys-ui-icons-logo" xmlns="http://www.w3.org/2000/svg"><path fill="currentColor" d="M171 154c-40 0-58-26-58-56s18-57 58-57c41 0 59 27 59 57s-18 56-59 56m0-83c-15 0-17 15-17 27 0 11 2 27 17 27 16 0 18-16 18-27 0-12-2-27-18-27m176 81h-40v-14h-1c-7 11-18 16-34 16-20 0-37-11-37-36V44h41v56c0 13 1 22 13 22 7 0 17-4 17-21V44h41v108zm50-50l1 10c3 8 13 10 22 10 8 0 19-2 19-13 0-8-7-10-32-17-23-7-50-13-50-43 0-34 29-49 60-49 32 0 60 12 61 48h-43c1-5-2-9-5-12-4-2-9-3-14-3-6 0-16 1-16 10 1 10 22 13 43 18 21 6 42 16 42 43 0 39-36 51-69 51-17 0-65-6-65-53h46zm130 5c1 12 8 21 21 21 7 0 14-3 18-8h38c-8 23-31 34-55 34-35 0-61-20-61-56 0-31 23-57 57-57 43 0 61 24 61 66h-79zm40-21c0-10-8-18-18-18-12 0-20 6-21 18h39zm82 21c1 12 8 21 21 21 6 0 14-3 17-8h38c-8 23-31 34-55 34-34 0-60-20-60-56 0-31 22-57 56-57 43 0 62 24 62 66h-79zm39-21c0-10-7-18-18-18-12 0-19 6-21 18h39zM35 189c-8 0-21-3-21-3v-28l9 1c6 0 9-2 12-5l4-8L0 44h44l16 63 19-63h42L79 158c-7 19-24 31-44 31"/></symbol><symbol viewBox="-3 -3 16 16" id="ys-ui-icons-multiplication" xmlns="http://www.w3.org/2000/svg"><path fill="currentColor" fill-rule="evenodd" d="M6.414 5.499l3.181 3.18a1 1 0 0 1-1.414 1.415L5 6.913l-3.18 3.18A1 1 0 0 1 .404 8.68l3.18-3.18-3.18-3.181A1 1 0 1 1 1.819.903L5 4.084 8.18.904a1 1 0 1 1 1.415 1.414l-3.18 3.18z"/></symbol><symbol viewBox="0 0 16 16" id="ys-ui-icons-plus" xmlns="http://www.w3.org/2000/svg"><path fill="currentColor" fill-rule="evenodd" d="M7 7V1a1 1 0 0 1 2 0v6h6a1 1 0 0 1 0 2H9v6a1 1 0 0 1-2 0V9H1a1 1 0 0 1 0-2h6z"/></symbol></svg>